<?xml version="1.0" encoding="UTF-8"?>
<svg width="60px" height="60px" viewBox="0 0 60 60" version="1.1" xmlns="http://www.w3.org/2000/svg" xmlns:xlink="http://www.w3.org/1999/xlink">
    <title>谱目总数</title>
    <g id="页面-1" stroke="none" stroke-width="1" fill="none" fill-rule="evenodd">
        <g id="总览页" transform="translate(-1386.000000, -445.000000)">
            <g id="编组-4备份" transform="translate(310.000000, 320.000000)">
                <g id="编组-7备份-8" transform="translate(804.000000, 80.000000)">
                    <g id="谱目总数" transform="translate(272.000000, 45.000000)">
                        <circle id="椭圆形" fill="#FEEDEC" cx="30" cy="30" r="30"></circle>
                        <g id="查重月度汇总" transform="translate(16.000000, 16.000000)" fill="#F44E38" fill-rule="nonzero">
                            <path d="M24.4811828,14.2868756 L24.4811828,0.727464128 C24.4811828,0.325696797 24.1441928,0 23.7284946,0 L0.752688154,0 C0.33698996,0 0,0.325696797 0,0.727464128 L0,27.0395813 C0,27.4413487 0.33698996,27.7670455 0.752688154,27.7670455 L14.4516129,27.7670455 C14.8673111,27.7670455 15.2043011,27.4413487 15.2043011,27.0395813 C15.2043011,26.637814 14.8673111,26.3121172 14.4516129,26.3121172 L1.52419355,26.3121172 L1.52419355,1.45492826 L22.9758065,1.45492826 L22.9758065,14.3414354 C23.0054011,14.7217531 23.3338801,15.0154138 23.7284946,15.0143397 C24.1441928,15.0143397 24.4811828,14.6886429 24.4811828,14.2868756 Z" id="路径" stroke="#F74D2F" stroke-width="0.802429478"></path>
                            <path d="M0.912257455,19.2343957 C0.573050407,19.2343957 0.264680363,19.0392642 0.110495341,18.7140449 C-0.136200694,18.226216 0.0488213321,17.6408214 0.480539394,17.380646 L15.8990416,8.5997262 C16.2690856,8.37207273 16.7316407,8.4696385 17.0091738,8.79485775 L20.8329623,13.2178396 C21.1721693,13.6081027 21.1413323,14.2260192 20.7712883,14.5837604 C20.4012442,14.9415016 19.8153412,14.9089797 19.4761341,14.5187166 L16.1457376,10.6811294 L1.34397552,19.104308 C1.2206275,19.2018738 1.06644248,19.2343957 0.912257455,19.2343957 L0.912257455,19.2343957 Z M7.23384336,10.1282567 C5.63031913,10.1282567 4.30432794,8.7298139 4.30432794,7.0386738 C4.30432794,5.34753369 5.63031913,3.94909091 7.23384336,3.94909091 C8.83736759,3.94909091 10.1633588,5.34753369 10.1633588,7.0386738 C10.1633588,8.7298139 8.83736759,10.1282567 7.23384336,10.1282567 Z M7.23384336,5.90040642 C6.64794027,5.90040642 6.1545482,6.42075722 6.1545482,7.0386738 C6.1545482,7.65659037 6.64794027,8.17694118 7.23384336,8.17694118 C7.81974644,8.17694118 8.31313851,7.65659037 8.31313851,7.0386738 C8.31313851,6.42075722 7.81974644,5.90040642 7.23384336,5.90040642 Z" id="形状"></path>
                            <path d="M15.2985033,20.1608529 C14.2702681,22.5456104 14.8306959,25.2942442 16.7181774,27.1236845 C18.6056589,28.9531249 21.4479882,29.5026115 23.9183582,28.5156424 C26.3887282,27.5286734 28,25.1998762 28,22.6163397 C28,19.0979214 25.0543795,16.2428661 21.4139785,16.2327901 C18.7408714,16.2254816 16.3267384,17.7760954 15.2985033,20.1608529 Z M16.6875089,24.4926509 C15.8933868,22.6493282 16.3284778,20.5250592 17.7893315,19.1131617 C19.2501851,17.7012642 21.4481108,17.2807539 23.3553488,18.0482633 C25.2625868,18.8157728 26.5022331,20.6196286 26.494693,22.6163397 C26.4843043,25.3241273 24.2156558,27.5167489 21.4139785,27.5267895 C19.3480335,27.5340769 17.4816309,26.3359735 16.6875089,24.4926509 Z" id="形状" stroke="#F74D2F" stroke-width="0.5"></path>
                            <g id="编组-10" transform="translate(18.666667, 19.436932)">
                                <path d="M5.06655684,3.59496201 L0.574777456,3.59496201 C0.276744701,3.59496201 0,3.34454534 0,3.02583321 C0,2.70712108 0.234168593,2.41117411 0.532201348,2.41117411 L5.06655684,2.41117411 C5.36458959,2.41117411 5.62004624,2.70712108 5.59875818,3.02583321 C5.59875818,3.34454534 5.36458959,3.59496201 5.06655684,3.59496201 Z M5.06655684,5.91700752 L0.574777456,5.91700752 C0.276744701,5.91700752 0.0212880539,5.62106054 0.0425761079,5.30234842 C0.0425761079,4.98363629 0.298032755,4.73321961 0.574777456,4.73321961 L5.06655684,4.73321961 C5.36458959,4.73321961 5.62004624,5.02916659 5.59875818,5.34787872 C5.59875818,5.6438257 5.36458959,5.91700752 5.06655684,5.91700752 Z" id="形状"></path>
                                <path d="M2.83131117,8.33011364 C2.53327842,8.33011364 2.27782177,8.05693181 2.27782177,7.73821968 L2.27782177,2.91200745 C2.27782177,2.59329532 2.55456647,2.3201135 2.85259923,2.34287865 C3.15063198,2.34287865 3.38480057,2.61606048 3.38480057,2.91200745 L3.38480057,7.71545453 C3.38480057,8.05693181 3.12934393,8.33011364 2.83131117,8.33011364 Z" id="路径"></path>
                                <path d="M2.83131117,3.20795443 C2.6822948,3.20795443 2.53327842,3.13965897 2.42683815,3.02583321 L0.574777456,1.04526499 C0.340608863,0.817613466 0.319320809,0.453371033 0.532201348,0.202954361 C0.745081888,-0.0474623112 1.08569075,-0.0702274632 1.31985934,0.157424057 L1.36243545,0.202954361 L3.21449614,2.18352259 C3.42737668,2.41117411 3.42737668,2.79818169 3.21449614,3.02583321 C3.10805587,3.13965897 2.9590395,3.20795443 2.83131117,3.20795443 L2.83131117,3.20795443 Z" id="路径"></path>
                                <path d="M2.83131117,3.20795443 C2.6822948,3.20795443 2.53327842,3.13965897 2.42683815,3.02583321 C2.21395761,2.79818169 2.21395761,2.41117411 2.42683815,2.18352259 L4.27889884,0.202954361 C4.51306743,-0.0246971592 4.87496435,0.0208331449 5.06655684,0.248484665 C5.25814932,0.476136185 5.25814932,0.817613466 5.06655684,1.04526499 L3.21449614,3.02583321 C3.10805587,3.13965897 2.9590395,3.20795443 2.83131117,3.20795443 L2.83131117,3.20795443 Z" id="路径"></path>
                            </g>
                        </g>
                    </g>
                </g>
            </g>
        </g>
    </g>
</svg>