<?xml version="1.0" encoding="UTF-8"?>
<svg width="60px" height="60px" viewBox="0 0 60 60" version="1.1" xmlns="http://www.w3.org/2000/svg" xmlns:xlink="http://www.w3.org/1999/xlink">
    <title>谱目总数</title>
    <g id="页面-1" stroke="none" stroke-width="1" fill="none" fill-rule="evenodd">
        <g id="总览页" transform="translate(-999.000000, -445.000000)">
            <g id="编组-4备份" transform="translate(310.000000, 320.000000)">
                <g id="编组-7备份-7" transform="translate(417.000000, 80.000000)">
                    <g id="谱目总数" transform="translate(272.000000, 45.000000)">
                        <circle id="椭圆形" fill="#FEEDEC" cx="30" cy="30" r="30"></circle>
                        <g id="图片-(3)" transform="translate(15.000000, 15.000000)" fill="#F44E38" fill-rule="nonzero">
                            <path d="M22.7227723,32 L2.99151344,32 C1.33663366,32 0,30.5632423 0,28.7843994 L0,7.48226725 C0,5.70342438 1.33663366,4.26666667 2.99151344,4.26666667 L22.7227723,4.26666667 C24.3776521,4.26666667 25.7142857,5.70342438 25.7142857,7.48226725 L25.7142857,28.7843994 C25.7142857,30.5632423 24.3776521,32 22.7227723,32 Z M2.99151344,6.31917768 C2.38684583,6.31917768 1.90947666,6.83230543 1.90947666,7.48226725 L1.90947666,28.7843994 C1.90947666,29.4343612 2.38684583,29.947489 2.99151344,29.947489 L22.7227723,29.947489 C23.3274399,29.947489 23.8048091,29.4343612 23.8048091,28.7843994 L23.8048091,7.48226725 C23.8048091,6.83230543 23.3274399,6.31917768 22.7227723,6.31917768 L2.99151344,6.31917768 Z" id="形状" stroke="#F74D2F" stroke-width="0.75"></path>
                            <path d="M27.1254355,0 L7.57839721,0 C6.94336597,0 6.42857143,0.511674572 6.42857143,1.14285714 C6.42857143,1.77403971 6.94336597,2.28571429 7.57839721,2.28571429 L27.1254355,2.28571429 C27.4429512,2.28571429 27.7003484,2.54155157 27.7003484,2.85714286 L27.7003484,24.5714286 C27.7003484,25.2026111 28.215143,25.7142857 28.8501742,25.7142857 C29.4852055,25.7142857 30,25.2026111 30,24.5714286 L30,2.85714286 C30,1.28228571 28.7110453,0 27.1254355,0 Z" id="路径"></path>
                            <path d="M0.991189427,28.134902 C0.627753304,28.134902 0.297356828,27.9240784 0.13215859,27.5727059 C-0.13215859,27.0456471 0.0660792952,26.4131765 0.528634361,26.1320784 L17.0484581,16.6450196 C17.4449339,16.3990588 17.9405286,16.5044706 18.2378855,16.8558431 L22.3348018,21.6345098 C22.6982379,22.0561569 22.6651982,22.7237647 22.2687225,23.1102745 C21.8722467,23.4967843 21.2444934,23.4616471 20.8810573,23.04 L17.3127753,18.8938039 L1.45374449,27.9943529 C1.3215859,28.0997647 1.15638767,28.134902 0.991189427,28.134902 L0.991189427,28.134902 Z M7.76431718,18.2964706 C6.04625551,18.2964706 4.62555066,16.7855686 4.62555066,14.9584314 C4.62555066,13.1312941 6.04625551,11.6203922 7.76431718,11.6203922 C9.48237885,11.6203922 10.9030837,13.1312941 10.9030837,14.9584314 C10.9030837,16.7855686 9.48237885,18.2964706 7.76431718,18.2964706 Z M7.76431718,13.7286275 C7.13656388,13.7286275 6.60792952,14.2908235 6.60792952,14.9584314 C6.60792952,15.6260392 7.13656388,16.1882353 7.76431718,16.1882353 C8.39207048,16.1882353 8.92070485,15.6260392 8.92070485,14.9584314 C8.92070485,14.2908235 8.39207048,13.7286275 7.76431718,13.7286275 Z" id="形状"></path>
                        </g>
                    </g>
                </g>
            </g>
        </g>
    </g>
</svg>