<?xml version="1.0" encoding="UTF-8"?>
<svg width="60px" height="60px" viewBox="0 0 60 60" version="1.1" xmlns="http://www.w3.org/2000/svg" xmlns:xlink="http://www.w3.org/1999/xlink">
    <title>谱目总数</title>
    <g id="页面-1" stroke="none" stroke-width="1" fill="none" fill-rule="evenodd">
        <g id="总览页" transform="translate(-1773.000000, -445.000000)">
            <g id="编组-4备份" transform="translate(310.000000, 320.000000)">
                <g id="编组-7备份-9" transform="translate(1191.000000, 80.000000)">
                    <g id="谱目总数" transform="translate(272.000000, 45.000000)">
                        <circle id="椭圆形" fill="#FEEDEC" cx="30" cy="30" r="30"></circle>
                        <g id="应用机构管理" transform="translate(15.000000, 14.000000)" fill="#F44E38" fill-rule="nonzero">
                            <path d="M28.6945447,32 L1.30545532,32 C0.589046911,32 0,31.4165224 0,30.6998597 C0,29.986368 0.585862874,29.3997193 1.30545532,29.3997193 L28.6945447,29.3997193 C29.4109531,29.3997193 30,29.9831969 30,30.6998597 C29.996816,31.4133513 29.4109531,32 28.6945447,32 Z" id="路径"></path>
                            <path d="M26.0868181,13.7409558 C26.8032265,13.7409558 27.3922734,14.3244334 27.3922734,15.0410962 L27.3922734,30.6998597 C27.3922734,31.4133513 26.8064105,32 26.0868181,32 C25.3704097,32 24.7813628,31.4165224 24.7813628,30.6998597 L24.7813628,15.0410962 C24.7813628,14.3276045 25.3672256,13.7409558 26.0868181,13.7409558 Z M2.50265336,31.9968289 L2.50265336,8.73462941 C2.50265336,7.22836925 3.27637444,5.83309669 4.47675653,5.17985544 L13.2646996,0.394704745 C14.3313522,-0.1856018 15.6208873,-0.12218032 16.6302271,0.559600594 C17.6809595,1.2667501 18.3305031,2.56371937 18.3305031,3.94630765 L18.3305031,31.9968289 L2.50265336,31.9968289 Z M15.7259605,29.3997193 L15.7259605,3.94947872 C15.7259605,3.42625151 15.509446,2.94107718 15.171938,2.71275985 C14.9617916,2.57006152 14.7357249,2.55737723 14.5160263,2.67470696 L5.72808321,7.45985766 C5.36510295,7.65646425 5.11037996,8.17969146 5.11037996,8.73462941 L5.11037996,29.3997193 L15.7259605,29.3997193 Z" id="形状"></path>
                            <path d="M13.3315644,14.8381474 L8.5650605,16.9500827 C7.9091488,17.2418215 7.13542772,16.9437406 6.84249629,16.2904993 C6.54956485,15.6372581 6.84886436,14.8666871 7.50477606,14.5749483 L12.27128,12.463013 C12.9271917,12.1712742 13.7009128,12.4693551 13.9938442,13.1225964 C14.2835916,13.7758376 13.9842921,14.5464086 13.3315644,14.8381474 Z M13.3315644,21.9794061 L8.5650605,24.0913414 C7.9091488,24.3830802 7.13542772,24.0849993 6.84249629,23.431758 C6.54956485,22.7785168 6.84886436,22.0079458 7.50477606,21.716207 L12.27128,19.6042717 C12.9271917,19.3125329 13.7009128,19.6106138 13.9938442,20.2638551 C14.2835916,20.9170963 13.9842921,21.6908384 13.3315644,21.9794061 Z M25.5550838,16.2270778 L21.9794099,14.6415408 C21.3234982,14.349802 21.0273827,13.579231 21.3171301,12.9259898 C21.6100616,12.2727485 22.3837826,11.9778387 23.0396943,12.2664064 L26.6153683,13.8519434 C27.27128,14.1436822 27.5673955,14.9142532 27.2776481,15.5674944 C26.9847166,16.2239068 26.2109955,16.5188166 25.5550838,16.2270778 Z" id="形状"></path>
                        </g>
                    </g>
                </g>
            </g>
        </g>
    </g>
</svg>