<?xml version="1.0" encoding="UTF-8"?>
<svg width="60px" height="60px" viewBox="0 0 60 60" version="1.1" xmlns="http://www.w3.org/2000/svg" xmlns:xlink="http://www.w3.org/1999/xlink">
    <title>谱目总数</title>
    <g id="页面-1" stroke="none" stroke-width="1" fill="none" fill-rule="evenodd">
        <g id="总览页" transform="translate(-612.000000, -445.000000)">
            <g id="编组-4备份" transform="translate(310.000000, 320.000000)">
                <g id="编组-7" transform="translate(30.000000, 80.000000)">
                    <g id="谱目总数" transform="translate(272.000000, 45.000000)">
                        <circle id="椭圆形" fill="#FEEDEC" cx="30" cy="30" r="30"></circle>
                        <g id="图书馆-(2)" transform="translate(15.000000, 14.000000)" fill="#F44E38" fill-rule="nonzero">
                            <path d="M5.94059847,31.7400342 L1.59515164,31.7400342 C0.715570523,31.7400342 0,30.9863319 0,30.0598792 L0,1.78756747 C0,0.861114735 0.715570523,0.107412479 1.59515164,0.107412479 L5.94059847,0.107412479 C6.82017958,0.107412479 7.5357501,0.861114735 7.5357501,1.78756747 L7.5357501,30.0598792 C7.5357501,30.9862938 6.82014333,31.7400342 5.94059847,31.7400342 L5.94059847,31.7400342 Z M2.32022056,29.2961724 L5.21552954,29.2961724 L5.21552954,2.55127429 L2.32022056,2.55127429 L2.32022056,29.2961724 Z M15.00396,31.8927756 L10.6585132,31.8927756 C9.77893209,31.8927756 9.06336157,31.1390733 9.06336157,30.2126206 L9.06336157,1.94030884 C9.06336157,1.0138561 9.77893209,0.260153842 10.6585132,0.260153842 L15.00396,0.260153842 C15.8835412,0.260153842 16.5991117,1.0138561 16.5991117,1.94030884 L16.5991117,30.2126206 C16.5991117,31.1390351 15.8835049,31.8927756 15.00396,31.8927756 Z M11.3835821,29.4489138 L14.2788911,29.4489138 L14.2788911,2.70401565 L11.3835821,2.70401565 L11.3835821,29.4489138 Z M24.1205779,32 C23.3582405,32 22.6821137,31.4209575 22.549136,30.603333 L18.0178178,2.73681686 C17.8693237,1.8236908 18.4538017,0.953561445 19.3207666,0.797154289 L23.6038575,0.024473919 C24.0234549,-0.0512094264 24.4460614,0.0499817266 24.7942032,0.309412932 C25.1423088,0.568844137 25.3735333,0.955050673 25.4454239,1.39689325 L29.9767784,29.2634476 C30.0485964,29.7052519 29.9525611,30.150493 29.7062914,30.5171487 C29.4599855,30.8838425 29.0933181,31.1274268 28.6738295,31.2031483 L28.4779884,29.9987445 L28.6738295,31.2031483 L24.3907386,31.9757905 C24.301494,31.9918678 24.2111184,32 24.1205779,32 Z M20.4271493,3.07697187 L24.7136843,29.4379927 L27.5674468,28.9232162 L23.2808756,2.56215711 L20.4271493,3.07697187 Z" id="形状"></path>
                            <path d="M1.63278271,5.63348044 L5.47336405,5.63348044 L5.47336405,8.07734224 L1.63278271,8.07734224 L1.63278271,5.63348044 Z M1.63278271,21.813373 L5.47336405,21.813373 L5.47336405,24.2572348 L1.63278271,24.2572348 L1.63278271,21.813373 Z M10.9838516,5.58613061 L14.6817394,5.58613061 L14.6817394,8.02999242 L10.9838516,8.02999242 L10.9838516,5.58613061 Z M10.913665,21.813373 L14.6115527,21.813373 L14.6115527,24.2572348 L10.913665,24.2572348 L10.913665,21.813373 Z M23.2524166,24.7831233 L27.1678613,24.0501175 L27.5738999,26.4563668 L23.6584915,27.1893726 L23.2524166,24.7831233 Z" id="形状"></path>
                        </g>
                    </g>
                </g>
            </g>
        </g>
    </g>
</svg>