<?xml version="1.0" encoding="UTF-8"?>
<svg width="217px" height="60px" viewBox="0 0 217 60" version="1.1" xmlns="http://www.w3.org/2000/svg" xmlns:xlink="http://www.w3.org/1999/xlink">
    <title>编组 2</title>
    <g id="页面-1" stroke="none" stroke-width="1" fill="none" fill-rule="evenodd">
        <g id="登录页备份-2" transform="translate(-1206.000000, -588.000000)">
            <g id="编组-10" transform="translate(1202.000000, 256.000000)">
                <g id="编组-2" transform="translate(4.000000, 332.000000)">
                    <rect id="矩形" fill="#FFFFFF" x="0" y="0" width="217" height="60" rx="30"></rect>
                    <g id="进入系统" transform="translate(42.375000, 1.531250)" fill="#080808">
                        <text id="Login-in" font-family="STKaitiSC-Black, Kaiti SC" font-size="41" font-weight="700">
                            <tspan x="0" y="43">Login in</tspan>
                        </text>
                        <g id="Login-in备份" transform="translate(0.779000, 14.792000)" fill-rule="nonzero">
                            <path d="M9.061,23.083 C9.061,23.4383333 9.1225,23.7048333 9.2455,23.8825 C9.3685,24.0601667 9.68966667,24.149 10.209,24.149 L14.186,24.149 C14.7053333,24.149 15.2998333,24.1148333 15.9695,24.0465 C16.6391667,23.9781667 17.3498333,23.7731667 18.1015,23.4315 C18.8531667,23.0898333 19.6185,22.5568333 20.3975,21.8325 C21.1765,21.1081667 21.9213333,20.09 22.632,18.778 L23.288,18.778 L22.099,25.912 C20.951,25.8573333 19.4476667,25.8163333 17.589,25.789 C15.7303333,25.7616667 13.4343333,25.748 10.701,25.748 C7.96766667,25.748 5.7195,25.7616667 3.9565,25.789 C2.1935,25.8163333 0.874666667,25.8573333 0,25.912 L0,24.928 L2.788,24.395 C3.49866667,24.313 3.854,24.026 3.854,23.534 L3.854,2.911 C3.854,2.39166667 3.75833333,2.06366667 3.567,1.927 C3.37566667,1.79033333 3.116,1.681 2.788,1.599 L0.574,1.066 L0.574,0 C2.05,0.082 4.264,0.123 7.216,0.123 C10.168,0.123 11.9993333,0.082 12.71,0 L12.71,1.066 L10.127,1.599 C9.77166667,1.681 9.50516667,1.7835 9.3275,1.9065 C9.14983333,2.0295 9.061,2.36433333 9.061,2.911 L9.061,23.083 Z" id="L"></path>
                            <path d="M33.579,26.404 C32.1303333,26.404 30.873,26.1921667 29.807,25.7685 C28.741,25.3448333 27.8458333,24.7503333 27.1215,23.985 C26.3971667,23.2196667 25.8573333,22.3245 25.502,21.2995 C25.1466667,20.2745 24.969,19.147 24.969,17.917 C24.969,16.6596667 25.1466667,15.5048333 25.502,14.4525 C25.8573333,13.4001667 26.3971667,12.4981667 27.1215,11.7465 C27.8458333,10.9948333 28.7683333,10.4071667 29.889,9.9835 C31.0096667,9.55983333 32.349,9.348 33.907,9.348 C35.465,9.348 36.7975,9.56666667 37.9045,10.004 C39.0115,10.4413333 39.9271667,11.0495 40.6515,11.8285 C41.3758333,12.6075 41.9088333,13.5231667 42.2505,14.5755 C42.5921667,15.6278333 42.763,16.769 42.763,17.999 C42.763,19.2563333 42.5511667,20.3975 42.1275,21.4225 C41.7038333,22.4475 41.1025,23.329 40.3235,24.067 C39.5445,24.805 38.581,25.379 37.433,25.789 C36.285,26.199 35.0003333,26.404 33.579,26.404 Z M30.135,18.204 C30.135,20.254 30.4356667,21.8735 31.037,23.0625 C31.6383333,24.2515 32.554,24.846 33.784,24.846 C34.9593333,24.846 35.875,24.2173333 36.531,22.96 C37.187,21.7026667 37.515,20.0353333 37.515,17.958 C37.515,15.8806667 37.2075,14.1928333 36.5925,12.8945 C35.9775,11.5961667 35.0413333,10.947 33.784,10.947 C31.3513333,10.947 30.135,13.366 30.135,18.204 Z" id="o"></path>
                            <path d="M52.275,25.625 C51.1543333,25.625 50.1908333,25.4405 49.3845,25.0715 C48.5781667,24.7025 47.9221667,24.1968333 47.4165,23.5545 C46.9108333,22.9121667 46.535,22.14 46.289,21.238 C46.043,20.336 45.92,19.352 45.92,18.286 C45.92,16.8646667 46.1386667,15.6141667 46.576,14.5345 C47.0133333,13.4548333 47.601,12.5596667 48.339,11.849 C49.077,11.1383333 49.938,10.6053333 50.922,10.25 C51.906,9.89466667 52.9446667,9.717 54.038,9.717 C54.8033333,9.717 55.473,9.77166667 56.047,9.881 C56.621,9.99033333 57.0993333,10.1133333 57.482,10.25 C57.974,10.3866667 58.3566667,10.5506667 58.63,10.742 L61.336,9.225 L61.705,9.348 L61.705,24.887 C61.705,25.9256667 61.4931667,26.8891667 61.0695,27.7775 C60.6458333,28.6658333 60.065,29.438 59.327,30.094 C58.589,30.75 57.7075,31.2693333 56.6825,31.652 C55.6575,32.0346667 54.5573333,32.226 53.382,32.226 C51.8786667,32.226 50.676,32.1235 49.774,31.9185 C48.872,31.7135 48.175,31.447 47.683,31.119 C47.191,30.791 46.8698333,30.4288333 46.7195,30.0325 C46.5691667,29.6361667 46.494,29.233 46.494,28.823 C46.494,28.249 46.6785,27.8048333 47.0475,27.4905 C47.4165,27.1761667 47.888,27.019 48.462,27.019 C49.036,27.019 49.4733333,27.1078333 49.774,27.2855 C50.0746667,27.4631667 50.3001667,27.6886667 50.4505,27.962 C50.6008333,28.2353333 50.717,28.5291667 50.799,28.8435 C50.881,29.1578333 51.0108333,29.4516667 51.1885,29.725 C51.3661667,29.9983333 51.6258333,30.2238333 51.9675,30.4015 C52.3091667,30.5791667 52.8216667,30.668 53.505,30.668 C54.6803333,30.668 55.596,30.2648333 56.252,29.4585 C56.908,28.6521667 57.236,27.306 57.236,25.42 L57.236,21.197 C57.0993333,21.771 56.908,22.3245 56.662,22.8575 C56.416,23.3905 56.0948333,23.862 55.6985,24.272 C55.3021667,24.682 54.8238333,25.01 54.2635,25.256 C53.7031667,25.502 53.0403333,25.625 52.275,25.625 Z M57.236,16.933 C57.236,16.359 57.2086667,15.7576667 57.154,15.129 C57.0993333,14.5003333 56.9763333,13.9195 56.785,13.3865 C56.5936667,12.8535 56.2998333,12.4093333 55.9035,12.054 C55.5071667,11.6986667 54.9673333,11.521 54.284,11.521 C53.9013333,11.521 53.4981667,11.5961667 53.0745,11.7465 C52.6508333,11.8968333 52.2613333,12.1838333 51.906,12.6075 C51.5506667,13.0311667 51.2568333,13.6188333 51.0245,14.3705 C50.7921667,15.1221667 50.676,16.0856667 50.676,17.261 C50.676,18.9283333 50.9356667,20.3018333 51.455,21.3815 C51.9743333,22.4611667 52.7806667,23.001 53.874,23.001 C54.3933333,23.001 54.8648333,22.8438333 55.2885,22.5295 C55.7121667,22.2151667 56.0675,21.7915 56.3545,21.2585 C56.6415,20.7255 56.8601667,20.0968333 57.0105,19.3725 C57.1608333,18.6481667 57.236,17.876 57.236,17.056 L57.236,16.933 Z" id="g"></path>
                            <path d="M70.438,0.533 C71.1486667,0.533 71.7568333,0.7995 72.2625,1.3325 C72.7681667,1.8655 73.021,2.48733333 73.021,3.198 C73.021,3.82666667 72.7681667,4.40066667 72.2625,4.92 C71.7568333,5.43933333 71.135,5.699 70.397,5.699 C69.6863333,5.699 69.0918333,5.45983333 68.6135,4.9815 C68.1351667,4.50316667 67.896,3.90866667 67.896,3.198 C67.896,2.48733333 68.142,1.8655 68.634,1.3325 C69.126,0.7995 69.7273333,0.533 70.438,0.533 Z M74.579,25.912 C74.1416667,25.8573333 73.4856667,25.8163333 72.611,25.789 C71.7363333,25.7616667 70.7523333,25.748 69.659,25.748 C68.5656667,25.748 67.5816667,25.7616667 66.707,25.789 C65.8323333,25.8163333 65.1763333,25.8573333 64.739,25.912 L64.739,24.846 L66.297,24.436 C67.1443333,24.272 67.568,23.7663333 67.568,22.919 L67.568,15.539 C67.568,14.883 67.404,14.4046667 67.076,14.104 C66.748,13.8033333 66.092,13.5436667 65.108,13.325 L65.108,12.341 C65.5726667,12.2316667 66.1056667,12.0745 66.707,11.8695 C67.3083333,11.6645 67.896,11.4321667 68.47,11.1725 C69.044,10.9128333 69.577,10.6258333 70.069,10.3115 C70.561,9.99716667 70.9436667,9.676 71.217,9.348 C71.4083333,9.348 71.586,9.35483333 71.75,9.3685 C71.914,9.38216667 72.0916667,9.389 72.283,9.389 L72.283,23.042 C72.283,23.452 72.3445,23.7595 72.4675,23.9645 C72.5905,24.1695 72.8296667,24.313 73.185,24.395 L74.579,24.846 L74.579,25.912 Z" id="i"></path>
                            <path d="M96.719,25.871 C95.2976667,25.789 93.7191667,25.748 91.9835,25.748 C90.2478333,25.748 88.6693333,25.789 87.248,25.871 L87.248,24.846 L88.683,24.518 C89.2843333,24.436 89.585,23.903 89.585,22.919 L89.585,16.031 C89.585,15.4296667 89.5645,14.9035 89.5235,14.4525 C89.4825,14.0015 89.3868333,13.6188333 89.2365,13.3045 C89.0861667,12.9901667 88.8538333,12.7578333 88.5395,12.6075 C88.2251667,12.4571667 87.7946667,12.382 87.248,12.382 C86.6193333,12.382 85.9565,12.5801667 85.2595,12.9765 C84.5625,13.3728333 83.9816667,13.8443333 83.517,14.391 L83.517,23.37 C83.517,23.8073333 83.845,24.108 84.501,24.272 L85.69,24.846 L85.69,25.871 C85.3073333,25.8163333 84.9383333,25.7821667 84.583,25.7685 C84.2276667,25.7548333 83.804,25.748 83.312,25.748 L80.811,25.748 C79.9363333,25.748 79.0548333,25.7548333 78.1665,25.7685 C77.2781667,25.7821667 76.629,25.8163333 76.219,25.871 L76.219,24.846 L77.982,24.436 C78.2553333,24.3813333 78.4603333,24.2583333 78.597,24.067 C78.7336667,23.8756667 78.802,23.5886667 78.802,23.206 L78.802,15.129 C78.802,14.2816667 78.6311667,13.7076667 78.2895,13.407 C77.9478333,13.1063333 77.3396667,12.8876667 76.465,12.751 L76.465,11.972 C76.9023333,11.8626667 77.4148333,11.726 78.0025,11.562 C78.5901667,11.398 79.171,11.1861667 79.745,10.9265 C80.319,10.6668333 80.852,10.3525 81.344,9.9835 C81.836,9.6145 82.205,9.17033333 82.451,8.651 L83.517,8.651 L83.517,12.628 C84.337,11.6166667 85.2253333,10.824 86.182,10.25 C87.1386667,9.676 88.0953333,9.389 89.052,9.389 C90.6373333,9.389 91.9083333,9.85366667 92.865,10.783 C93.8216667,11.7123333 94.3,13.12 94.3,15.006 L94.3,22.796 C94.3,23.3426667 94.3683333,23.739 94.505,23.985 C94.6416667,24.231 94.915,24.4086667 95.325,24.518 L96.719,24.846 L96.719,25.871 Z" id="n"></path>
                            <path d="M113.857,0.533 C114.567667,0.533 115.175833,0.7995 115.6815,1.3325 C116.187167,1.8655 116.44,2.48733333 116.44,3.198 C116.44,3.82666667 116.187167,4.40066667 115.6815,4.92 C115.175833,5.43933333 114.554,5.699 113.816,5.699 C113.105333,5.699 112.510833,5.45983333 112.0325,4.9815 C111.554167,4.50316667 111.315,3.90866667 111.315,3.198 C111.315,2.48733333 111.561,1.8655 112.053,1.3325 C112.545,0.7995 113.146333,0.533 113.857,0.533 Z M117.998,25.912 C117.560667,25.8573333 116.904667,25.8163333 116.03,25.789 C115.155333,25.7616667 114.171333,25.748 113.078,25.748 C111.984667,25.748 111.000667,25.7616667 110.126,25.789 C109.251333,25.8163333 108.595333,25.8573333 108.158,25.912 L108.158,24.846 L109.716,24.436 C110.563333,24.272 110.987,23.7663333 110.987,22.919 L110.987,15.539 C110.987,14.883 110.823,14.4046667 110.495,14.104 C110.167,13.8033333 109.511,13.5436667 108.527,13.325 L108.527,12.341 C108.991667,12.2316667 109.524667,12.0745 110.126,11.8695 C110.727333,11.6645 111.315,11.4321667 111.889,11.1725 C112.463,10.9128333 112.996,10.6258333 113.488,10.3115 C113.98,9.99716667 114.362667,9.676 114.636,9.348 C114.827333,9.348 115.005,9.35483333 115.169,9.3685 C115.333,9.38216667 115.510667,9.389 115.702,9.389 L115.702,23.042 C115.702,23.452 115.7635,23.7595 115.8865,23.9645 C116.0095,24.1695 116.248667,24.313 116.604,24.395 L117.998,24.846 L117.998,25.912 Z" id="i"></path>
                            <path d="M140.138,25.871 C138.716667,25.789 137.138167,25.748 135.4025,25.748 C133.666833,25.748 132.088333,25.789 130.667,25.871 L130.667,24.846 L132.102,24.518 C132.703333,24.436 133.004,23.903 133.004,22.919 L133.004,16.031 C133.004,15.4296667 132.9835,14.9035 132.9425,14.4525 C132.9015,14.0015 132.805833,13.6188333 132.6555,13.3045 C132.505167,12.9901667 132.272833,12.7578333 131.9585,12.6075 C131.644167,12.4571667 131.213667,12.382 130.667,12.382 C130.038333,12.382 129.3755,12.5801667 128.6785,12.9765 C127.9815,13.3728333 127.400667,13.8443333 126.936,14.391 L126.936,23.37 C126.936,23.8073333 127.264,24.108 127.92,24.272 L129.109,24.846 L129.109,25.871 C128.726333,25.8163333 128.357333,25.7821667 128.002,25.7685 C127.646667,25.7548333 127.223,25.748 126.731,25.748 L124.23,25.748 C123.355333,25.748 122.473833,25.7548333 121.5855,25.7685 C120.697167,25.7821667 120.048,25.8163333 119.638,25.871 L119.638,24.846 L121.401,24.436 C121.674333,24.3813333 121.879333,24.2583333 122.016,24.067 C122.152667,23.8756667 122.221,23.5886667 122.221,23.206 L122.221,15.129 C122.221,14.2816667 122.050167,13.7076667 121.7085,13.407 C121.366833,13.1063333 120.758667,12.8876667 119.884,12.751 L119.884,11.972 C120.321333,11.8626667 120.833833,11.726 121.4215,11.562 C122.009167,11.398 122.59,11.1861667 123.164,10.9265 C123.738,10.6668333 124.271,10.3525 124.763,9.9835 C125.255,9.6145 125.624,9.17033333 125.87,8.651 L126.936,8.651 L126.936,12.628 C127.756,11.6166667 128.644333,10.824 129.601,10.25 C130.557667,9.676 131.514333,9.389 132.471,9.389 C134.056333,9.389 135.327333,9.85366667 136.284,10.783 C137.240667,11.7123333 137.719,13.12 137.719,15.006 L137.719,22.796 C137.719,23.3426667 137.787333,23.739 137.924,23.985 C138.060667,24.231 138.334,24.4086667 138.744,24.518 L140.138,24.846 L140.138,25.871 Z" id="n"></path>
                        </g>
                    </g>
                </g>
            </g>
        </g>
    </g>
</svg>