<?xml version="1.0" encoding="UTF-8"?>
<svg width="621px" height="61px" viewBox="0 0 621 61" version="1.1" xmlns="http://www.w3.org/2000/svg" xmlns:xlink="http://www.w3.org/1999/xlink">
    <title>Quality Management备份</title>
    <g id="页面-1" stroke="none" stroke-width="1" fill="none" fill-rule="evenodd">
        <g id="登录页备份-2" transform="translate(-1204.000000, -407.000000)" fill="#FFFFFF" fill-rule="nonzero">
            <g id="Quality-Management备份" transform="translate(1204.800000, 407.600000)">
                <path d="M18.97,46.83 C16.73,46.5966667 14.4783333,45.92 12.215,44.8 C9.95166667,43.68 7.91,42.175 6.09,40.285 C4.27,38.395 2.8,36.1783333 1.68,33.635 C0.56,31.0916667 0,28.3033333 0,25.27 C0,21.77 0.606666667,18.5733333 1.82,15.68 C3.03333333,12.7866667 4.71333333,10.3133333 6.86,8.26 C9.00666667,6.20666667 11.5383333,4.60833333 14.455,3.465 C17.3716667,2.32166667 20.5333333,1.75 23.94,1.75 C27.2066667,1.75 30.2633333,2.345 33.11,3.535 C35.9566667,4.725 38.4066667,6.34666667 40.46,8.4 C42.5133333,10.4533333 44.135,12.845 45.325,15.575 C46.515,18.305 47.11,21.21 47.11,24.29 C47.11,27.65 46.585,30.6133333 45.535,33.18 C44.485,35.7466667 43.1666667,37.94 41.58,39.76 C39.9933333,41.58 38.2666667,43.0033333 36.4,44.03 C34.5333333,45.0566667 32.76,45.71 31.08,45.99 C32.1533333,47.1566667 33.285,48.3116667 34.475,49.455 C35.665,50.5983333 36.9833333,51.7066667 38.43,52.78 C39.1766667,53.2933333 39.8766667,53.795 40.53,54.285 C41.1833333,54.775 41.895,55.265 42.665,55.755 C43.435,56.245 44.3333333,56.735 45.36,57.225 C46.3866667,57.715 47.6233333,58.1933333 49.07,58.66 L49.07,60.13 C43.19,60.13 37.73,58.975 32.69,56.665 C27.65,54.355 23.0766667,51.0766667 18.97,46.83 Z M10.15,24.64 C10.15,27.2066667 10.4533333,29.6916667 11.06,32.095 C11.6666667,34.4983333 12.565,36.6333333 13.755,38.5 C14.945,40.3666667 16.4383333,41.8716667 18.235,43.015 C20.0316667,44.1583333 22.12,44.73 24.5,44.73 C26.5066667,44.73 28.315,44.2633333 29.925,43.33 C31.535,42.3966667 32.8766667,41.0666667 33.95,39.34 C35.0233333,37.6133333 35.8516667,35.5366667 36.435,33.11 C37.0183333,30.6833333 37.31,27.9766667 37.31,24.99 C37.31,22.61 37.0766667,20.2066667 36.61,17.78 C36.1433333,15.3533333 35.3733333,13.16 34.3,11.2 C33.2266667,9.24 31.8383333,7.63 30.135,6.37 C28.4316667,5.11 26.3666667,4.48 23.94,4.48 C21.7,4.48 19.7166667,4.95833333 17.99,5.915 C16.2633333,6.87166667 14.8283333,8.23666667 13.685,10.01 C12.5416667,11.7833333 11.6666667,13.9066667 11.06,16.38 C10.4533333,18.8533333 10.15,21.6066667 10.15,24.64 Z" id="Q"></path>
                <path d="M52.57,19.53 L65.17,19.53 L65.17,36.26 C65.17,38.5 65.555,40.0866667 66.325,41.02 C67.095,41.9533333 68.1566667,42.42 69.51,42.42 C70.63,42.42 71.5983333,42.245 72.415,41.895 C73.2316667,41.545 74.1066667,40.9733333 75.04,40.18 L75.04,24.01 C75.04,23.6366667 75.0166667,23.31 74.97,23.03 C74.9233333,22.75 74.7483333,22.505 74.445,22.295 C74.1416667,22.085 73.64,21.91 72.94,21.77 C72.24,21.63 71.26,21.49 70,21.35 L70,19.53 L83.09,19.53 L83.09,39.41 C83.09,40.1566667 83.1133333,40.7516667 83.16,41.195 C83.2066667,41.6383333 83.3583333,41.9766667 83.615,42.21 C83.8716667,42.4433333 84.2916667,42.6183333 84.875,42.735 C85.4583333,42.8516667 86.2866667,42.9333333 87.36,42.98 C87.36,43.26 87.3716667,43.5516667 87.395,43.855 C87.4183333,44.1583333 87.43,44.45 87.43,44.73 L75.04,47.25 L75.04,41.93 C74.2466667,42.77 73.5,43.5283333 72.8,44.205 C72.1,44.8816667 71.3766667,45.4533333 70.63,45.92 C69.8833333,46.3866667 69.055,46.7366667 68.145,46.97 C67.235,47.2033333 66.1733333,47.32 64.96,47.32 C62.0666667,47.32 60.0366667,46.4566667 58.87,44.73 C57.7033333,43.0033333 57.12,40.7166667 57.12,37.87 L57.12,23.94 C57.12,23.52 57.0733333,23.17 56.98,22.89 C56.8866667,22.61 56.6766667,22.3766667 56.35,22.19 C56.0233333,22.0033333 55.5683333,21.84 54.985,21.7 C54.4016667,21.56 53.5966667,21.3966667 52.57,21.21 L52.57,19.53 Z" id="u"></path>
                <path d="M101.57,47.25 C99.6566667,47.25 98.0116667,46.9116667 96.635,46.235 C95.2583333,45.5583333 94.1383333,44.6366667 93.275,43.47 C92.4116667,42.3033333 91.77,40.9266667 91.35,39.34 C90.93,37.7533333 90.72,36.05 90.72,34.23 C90.72,31.7566667 91.0933333,29.5633333 91.84,27.65 C92.5866667,25.7366667 93.59,24.1266667 94.85,22.82 C96.11,21.5133333 97.58,20.5216667 99.26,19.845 C100.94,19.1683333 102.713333,18.83 104.58,18.83 C105.886667,18.83 107.03,18.9233333 108.01,19.11 C108.99,19.2966667 109.806667,19.5066667 110.46,19.74 C111.3,19.9733333 111.953333,20.2533333 112.42,20.58 L117.04,17.99 L117.67,18.2 L117.67,39.76 C117.67,41.58 118.463333,42.4666667 120.05,42.42 C120.423333,42.42 120.715,42.3616667 120.925,42.245 C121.135,42.1283333 121.333333,42.0233333 121.52,41.93 C121.66,41.8366667 121.823333,41.6966667 122.01,41.51 L122.43,42.49 C122.103333,43.3766667 121.613333,44.17 120.96,44.87 C120.446667,45.4766667 119.758333,46.025 118.895,46.515 C118.031667,47.005 116.97,47.25 115.71,47.25 C113.61,47.25 112.14,46.6316667 111.3,45.395 C110.46,44.1583333 110.04,42.6533333 110.04,40.88 L110.04,39.2 C109.806667,40.2266667 109.48,41.2183333 109.06,42.175 C108.64,43.1316667 108.091667,43.9833333 107.415,44.73 C106.738333,45.4766667 105.921667,46.0833333 104.965,46.55 C104.008333,47.0166667 102.876667,47.25 101.57,47.25 Z M110.04,31.15 C110.04,30.17 109.993333,29.1433333 109.9,28.07 C109.806667,26.9966667 109.596667,26.005 109.27,25.095 C108.943333,24.185 108.441667,23.4266667 107.765,22.82 C107.088333,22.2133333 106.166667,21.91 105,21.91 C104.346667,21.91 103.658333,22.085 102.935,22.435 C102.211667,22.785 101.546667,23.3566667 100.94,24.15 C100.333333,24.9433333 99.8316667,26.0283333 99.435,27.405 C99.0383333,28.7816667 98.84,30.4733333 98.84,32.48 C98.84,33.88 98.945,35.21 99.155,36.47 C99.365,37.73 99.7033333,38.8266667 100.17,39.76 C100.636667,40.6933333 101.208333,41.4283333 101.885,41.965 C102.561667,42.5016667 103.366667,42.77 104.3,42.77 C105.186667,42.77 105.991667,42.4666667 106.715,41.86 C107.438333,41.2533333 108.045,40.4483333 108.535,39.445 C109.025,38.4416667 109.398333,37.2866667 109.655,35.98 C109.911667,34.6733333 110.04,33.32 110.04,31.92 L110.04,31.15 Z" id="a"></path>
                <path d="M141.96,46.41 C140.84,46.3633333 139.545,46.3283333 138.075,46.305 C136.605,46.2816667 135.1,46.27 133.56,46.27 C132.02,46.27 130.515,46.2816667 129.045,46.305 C127.575,46.3283333 126.28,46.3633333 125.16,46.41 L125.16,44.59 L128.38,43.75 C128.986667,43.61 129.406667,43.4233333 129.64,43.19 C129.873333,42.9566667 129.99,42.49 129.99,41.79 L129.99,7.63 C129.99,6.65 129.71,5.92666667 129.15,5.46 C128.59,4.99333333 127.353333,4.48 125.44,3.92 L125.44,2.31 C125.906667,2.21666667 126.583333,2.1 127.47,1.96 C128.356667,1.82 129.336667,1.645 130.41,1.435 C131.483333,1.225 132.556667,1.00333333 133.63,0.77 C134.703333,0.536666667 135.636667,0.28 136.43,0 L138.04,0 L138.04,41.65 C138.04,42.5833333 138.133333,43.155 138.32,43.365 C138.506667,43.575 138.95,43.7733333 139.65,43.96 L141.96,44.59 L141.96,46.41 Z" id="l"></path>
                <path d="M153.72,3.15 C154.933333,3.15 155.971667,3.605 156.835,4.515 C157.698333,5.425 158.13,6.48666667 158.13,7.7 C158.13,8.77333333 157.698333,9.75333333 156.835,10.64 C155.971667,11.5266667 154.91,11.97 153.65,11.97 C152.436667,11.97 151.421667,11.5616667 150.605,10.745 C149.788333,9.92833333 149.38,8.91333333 149.38,7.7 C149.38,6.48666667 149.8,5.425 150.64,4.515 C151.48,3.605 152.506667,3.15 153.72,3.15 Z M160.79,46.48 C160.043333,46.3866667 158.923333,46.3166667 157.43,46.27 C155.936667,46.2233333 154.256667,46.2 152.39,46.2 C150.523333,46.2 148.843333,46.2233333 147.35,46.27 C145.856667,46.3166667 144.736667,46.3866667 143.99,46.48 L143.99,44.66 L146.65,43.96 C148.096667,43.68 148.82,42.8166667 148.82,41.37 L148.82,28.77 C148.82,27.65 148.54,26.8333333 147.98,26.32 C147.42,25.8066667 146.3,25.3633333 144.62,24.99 L144.62,23.31 C145.413333,23.1233333 146.323333,22.855 147.35,22.505 C148.376667,22.155 149.38,21.7583333 150.36,21.315 C151.34,20.8716667 152.25,20.3816667 153.09,19.845 C153.93,19.3083333 154.583333,18.76 155.05,18.2 C155.376667,18.2 155.68,18.2116667 155.96,18.235 C156.24,18.2583333 156.543333,18.27 156.87,18.27 L156.87,41.58 C156.87,42.28 156.975,42.805 157.185,43.155 C157.395,43.505 157.803333,43.75 158.41,43.89 L160.79,44.66 L160.79,46.48 Z" id="i"></path>
                <path d="M175,12.46 L176.54,12.46 C176.54,13.72 176.551667,14.9683333 176.575,16.205 C176.598333,17.4416667 176.61,18.69 176.61,19.95 L185.36,19.74 L185.36,23.03 L176.61,23.31 L176.61,35.91 C176.61,38.01 176.866667,39.5383333 177.38,40.495 C177.893333,41.4516667 178.966667,41.93 180.6,41.93 C181.3,41.93 182.07,41.8483333 182.91,41.685 C183.75,41.5216667 184.66,41.02 185.64,40.18 L186.27,41.16 C185.943333,41.8133333 185.5,42.5016667 184.94,43.225 C184.38,43.9483333 183.691667,44.6133333 182.875,45.22 C182.058333,45.8266667 181.136667,46.3283333 180.11,46.725 C179.083333,47.1216667 177.916667,47.32 176.61,47.32 C173.95,47.32 171.966667,46.655 170.66,45.325 C169.353333,43.995 168.7,41.72 168.7,38.5 L168.7,23.45 C168.046667,23.45 167.416667,23.4616667 166.81,23.485 C166.203333,23.5083333 165.573333,23.52 164.92,23.52 C164.266667,23.52 163.928333,23.2166667 163.905,22.61 C163.881667,22.0033333 164.196667,21.56 164.85,21.28 C165.876667,20.86 166.821667,20.4166667 167.685,19.95 C168.548333,19.4833333 169.26,19.0166667 169.82,18.55 C170.473333,18.0366667 171.348333,17.2666667 172.445,16.24 C173.541667,15.2133333 174.393333,13.9533333 175,12.46 Z" id="t"></path>
                <path d="M202.16,54.25 C201.32,56.35 200.095,57.8666667 198.485,58.8 C196.875,59.7333333 195.16,60.2 193.34,60.2 C192.826667,60.2 192.313333,60.1416667 191.8,60.025 C191.286667,59.9083333 190.843333,59.71 190.47,59.43 C190.143333,59.1966667 189.875,58.905 189.665,58.555 C189.455,58.205 189.35,57.7966667 189.35,57.33 C189.35,56.0233333 189.7,55.1716667 190.4,54.775 C191.1,54.3783333 191.94,54.18 192.92,54.18 C193.9,54.18 194.903333,54.3083333 195.93,54.565 C196.956667,54.8216667 197.726667,54.95 198.24,54.95 C198.473333,54.95 198.753333,54.8333333 199.08,54.6 C199.406667,54.3666667 199.733333,54.0516667 200.06,53.655 C200.386667,53.2583333 200.655,52.78 200.865,52.22 C201.075,51.66 201.18,51.0533333 201.18,50.4 C201.18,49.84 201.063333,49.0933333 200.83,48.16 C200.596667,47.3666667 200.328333,46.5733333 200.025,45.78 C199.721667,44.9866667 199.43,44.2633333 199.15,43.61 L189.98,23.45 C189.466667,22.33 188.86,21.6533333 188.16,21.42 L186.76,20.93 L186.76,19.18 C192.686667,19.6466667 197.61,19.6466667 201.53,19.18 L201.53,20.93 C200.27,20.93 199.593333,21.0466667 199.5,21.28 C199.406667,21.5133333 199.453333,21.8633333 199.64,22.33 L206.01,38.5 L211.54,24.85 C211.773333,24.1966667 211.878333,23.52 211.855,22.82 C211.831667,22.12 211.423333,21.6766667 210.63,21.49 L206.71,20.58 L206.71,19.18 C210.816667,19.6466667 215.11,19.6466667 219.59,19.18 L219.59,20.58 L217.35,21.14 C216.976667,21.2333333 216.661667,21.3616667 216.405,21.525 C216.148333,21.6883333 215.891667,21.9216667 215.635,22.225 C215.378333,22.5283333 215.121667,22.9483333 214.865,23.485 C214.608333,24.0216667 214.316667,24.71 213.99,25.55 L202.16,54.25 Z" id="y"></path>
                <path d="M300.72,46.41 C299.04,46.3633333 297.161667,46.3166667 295.085,46.27 C293.008333,46.2233333 291.153333,46.2 289.52,46.2 L286.93,46.2 C285.67,46.2 284.106667,46.2116667 282.24,46.235 C280.373333,46.2583333 278.46,46.3166667 276.5,46.41 L276.5,44.31 L280.7,43.47 C281.773333,43.2366667 282.45,42.8866667 282.73,42.42 C283.01,41.9533333 283.15,41.0433333 283.15,39.69 L283.15,10.85 L266,46.76 L247.87,11.34 L247.87,40.11 C247.87,42.3033333 248.57,43.47 249.97,43.61 L256.41,44.31 L256.41,46.41 C253.61,46.27 250.693333,46.2 247.66,46.2 C244.626667,46.2 241.266667,46.27 237.58,46.41 L237.58,44.31 L241.43,43.61 C242.316667,43.47 243.005,43.3066667 243.495,43.12 C243.985,42.9333333 244.358333,42.7116667 244.615,42.455 C244.871667,42.1983333 245.023333,41.8833333 245.07,41.51 C245.116667,41.1366667 245.14,40.67 245.14,40.11 L245.14,5.25 L238.77,4.48 L238.77,2.24 C239.516667,2.38 241.616667,2.45 245.07,2.45 C246.796667,2.45 248.453333,2.43833333 250.04,2.415 C251.626667,2.39166667 252.723333,2.33333333 253.33,2.24 L269.29,32.48 L283.71,2.24 C284.83,2.33333333 286.16,2.40333333 287.7,2.45 C289.24,2.49666667 290.803333,2.52 292.39,2.52 C293.976667,2.52 295.505,2.49666667 296.975,2.45 C298.445,2.40333333 299.67,2.33333333 300.65,2.24 L300.65,4.48 L296.31,5.39 C294.956667,5.67 294.023333,6.09 293.51,6.65 C292.996667,7.21 292.74,8.16666667 292.74,9.52 L292.74,39.2 C292.74,40.6466667 292.868333,41.615 293.125,42.105 C293.381667,42.595 293.93,42.9333333 294.77,43.12 L300.72,44.31 L300.72,46.41 Z" id="M"></path>
                <path d="M315.35,47.25 C313.436667,47.25 311.791667,46.9116667 310.415,46.235 C309.038333,45.5583333 307.918333,44.6366667 307.055,43.47 C306.191667,42.3033333 305.55,40.9266667 305.13,39.34 C304.71,37.7533333 304.5,36.05 304.5,34.23 C304.5,31.7566667 304.873333,29.5633333 305.62,27.65 C306.366667,25.7366667 307.37,24.1266667 308.63,22.82 C309.89,21.5133333 311.36,20.5216667 313.04,19.845 C314.72,19.1683333 316.493333,18.83 318.36,18.83 C319.666667,18.83 320.81,18.9233333 321.79,19.11 C322.77,19.2966667 323.586667,19.5066667 324.24,19.74 C325.08,19.9733333 325.733333,20.2533333 326.2,20.58 L330.82,17.99 L331.45,18.2 L331.45,39.76 C331.45,41.58 332.243333,42.4666667 333.83,42.42 C334.203333,42.42 334.495,42.3616667 334.705,42.245 C334.915,42.1283333 335.113333,42.0233333 335.3,41.93 C335.44,41.8366667 335.603333,41.6966667 335.79,41.51 L336.21,42.49 C335.883333,43.3766667 335.393333,44.17 334.74,44.87 C334.226667,45.4766667 333.538333,46.025 332.675,46.515 C331.811667,47.005 330.75,47.25 329.49,47.25 C327.39,47.25 325.92,46.6316667 325.08,45.395 C324.24,44.1583333 323.82,42.6533333 323.82,40.88 L323.82,39.2 C323.586667,40.2266667 323.26,41.2183333 322.84,42.175 C322.42,43.1316667 321.871667,43.9833333 321.195,44.73 C320.518333,45.4766667 319.701667,46.0833333 318.745,46.55 C317.788333,47.0166667 316.656667,47.25 315.35,47.25 Z M323.82,31.15 C323.82,30.17 323.773333,29.1433333 323.68,28.07 C323.586667,26.9966667 323.376667,26.005 323.05,25.095 C322.723333,24.185 322.221667,23.4266667 321.545,22.82 C320.868333,22.2133333 319.946667,21.91 318.78,21.91 C318.126667,21.91 317.438333,22.085 316.715,22.435 C315.991667,22.785 315.326667,23.3566667 314.72,24.15 C314.113333,24.9433333 313.611667,26.0283333 313.215,27.405 C312.818333,28.7816667 312.62,30.4733333 312.62,32.48 C312.62,33.88 312.725,35.21 312.935,36.47 C313.145,37.73 313.483333,38.8266667 313.95,39.76 C314.416667,40.6933333 314.988333,41.4283333 315.665,41.965 C316.341667,42.5016667 317.146667,42.77 318.08,42.77 C318.966667,42.77 319.771667,42.4666667 320.495,41.86 C321.218333,41.2533333 321.825,40.4483333 322.315,39.445 C322.805,38.4416667 323.178333,37.2866667 323.435,35.98 C323.691667,34.6733333 323.82,33.32 323.82,31.92 L323.82,31.15 Z" id="a"></path>
                <path d="M373.94,46.41 C371.513333,46.27 368.818333,46.2 365.855,46.2 C362.891667,46.2 360.196667,46.27 357.77,46.41 L357.77,44.66 L360.22,44.1 C361.246667,43.96 361.76,43.05 361.76,41.37 L361.76,29.61 C361.76,28.5833333 361.725,27.685 361.655,26.915 C361.585,26.145 361.421667,25.4916667 361.165,24.955 C360.908333,24.4183333 360.511667,24.0216667 359.975,23.765 C359.438333,23.5083333 358.703333,23.38 357.77,23.38 C356.696667,23.38 355.565,23.7183333 354.375,24.395 C353.185,25.0716667 352.193333,25.8766667 351.4,26.81 L351.4,42.14 C351.4,42.8866667 351.96,43.4 353.08,43.68 L355.11,44.66 L355.11,46.41 C354.456667,46.3166667 353.826667,46.2583333 353.22,46.235 C352.613333,46.2116667 351.89,46.2 351.05,46.2 L346.78,46.2 C345.286667,46.2 343.781667,46.2116667 342.265,46.235 C340.748333,46.2583333 339.64,46.3166667 338.94,46.41 L338.94,44.66 L341.95,43.96 C342.416667,43.8666667 342.766667,43.6566667 343,43.33 C343.233333,43.0033333 343.35,42.5133333 343.35,41.86 L343.35,28.07 C343.35,26.6233333 343.058333,25.6433333 342.475,25.13 C341.891667,24.6166667 340.853333,24.2433333 339.36,24.01 L339.36,22.68 C340.106667,22.4933333 340.981667,22.26 341.985,21.98 C342.988333,21.7 343.98,21.3383333 344.96,20.895 C345.94,20.4516667 346.85,19.915 347.69,19.285 C348.53,18.655 349.16,17.8966667 349.58,17.01 L351.4,17.01 L351.4,23.8 C352.8,22.0733333 354.316667,20.72 355.95,19.74 C357.583333,18.76 359.216667,18.27 360.85,18.27 C363.556667,18.27 365.726667,19.0633333 367.36,20.65 C368.993333,22.2366667 369.81,24.64 369.81,27.86 L369.81,41.16 C369.81,42.0933333 369.926667,42.77 370.16,43.19 C370.393333,43.61 370.86,43.9133333 371.56,44.1 L373.94,44.66 L373.94,46.41 Z" id="n"></path>
                <path d="M388.29,47.25 C386.376667,47.25 384.731667,46.9116667 383.355,46.235 C381.978333,45.5583333 380.858333,44.6366667 379.995,43.47 C379.131667,42.3033333 378.49,40.9266667 378.07,39.34 C377.65,37.7533333 377.44,36.05 377.44,34.23 C377.44,31.7566667 377.813333,29.5633333 378.56,27.65 C379.306667,25.7366667 380.31,24.1266667 381.57,22.82 C382.83,21.5133333 384.3,20.5216667 385.98,19.845 C387.66,19.1683333 389.433333,18.83 391.3,18.83 C392.606667,18.83 393.75,18.9233333 394.73,19.11 C395.71,19.2966667 396.526667,19.5066667 397.18,19.74 C398.02,19.9733333 398.673333,20.2533333 399.14,20.58 L403.76,17.99 L404.39,18.2 L404.39,39.76 C404.39,41.58 405.183333,42.4666667 406.77,42.42 C407.143333,42.42 407.435,42.3616667 407.645,42.245 C407.855,42.1283333 408.053333,42.0233333 408.24,41.93 C408.38,41.8366667 408.543333,41.6966667 408.73,41.51 L409.15,42.49 C408.823333,43.3766667 408.333333,44.17 407.68,44.87 C407.166667,45.4766667 406.478333,46.025 405.615,46.515 C404.751667,47.005 403.69,47.25 402.43,47.25 C400.33,47.25 398.86,46.6316667 398.02,45.395 C397.18,44.1583333 396.76,42.6533333 396.76,40.88 L396.76,39.2 C396.526667,40.2266667 396.2,41.2183333 395.78,42.175 C395.36,43.1316667 394.811667,43.9833333 394.135,44.73 C393.458333,45.4766667 392.641667,46.0833333 391.685,46.55 C390.728333,47.0166667 389.596667,47.25 388.29,47.25 Z M396.76,31.15 C396.76,30.17 396.713333,29.1433333 396.62,28.07 C396.526667,26.9966667 396.316667,26.005 395.99,25.095 C395.663333,24.185 395.161667,23.4266667 394.485,22.82 C393.808333,22.2133333 392.886667,21.91 391.72,21.91 C391.066667,21.91 390.378333,22.085 389.655,22.435 C388.931667,22.785 388.266667,23.3566667 387.66,24.15 C387.053333,24.9433333 386.551667,26.0283333 386.155,27.405 C385.758333,28.7816667 385.56,30.4733333 385.56,32.48 C385.56,33.88 385.665,35.21 385.875,36.47 C386.085,37.73 386.423333,38.8266667 386.89,39.76 C387.356667,40.6933333 387.928333,41.4283333 388.605,41.965 C389.281667,42.5016667 390.086667,42.77 391.02,42.77 C391.906667,42.77 392.711667,42.4666667 393.435,41.86 C394.158333,41.2533333 394.765,40.4483333 395.255,39.445 C395.745,38.4416667 396.118333,37.2866667 396.375,35.98 C396.631667,34.6733333 396.76,33.32 396.76,31.92 L396.76,31.15 Z" id="a"></path>
                <path d="M424.06,45.99 C422.146667,45.99 420.501667,45.675 419.125,45.045 C417.748333,44.415 416.628333,43.5516667 415.765,42.455 C414.901667,41.3583333 414.26,40.04 413.84,38.5 C413.42,36.96 413.21,35.28 413.21,33.46 C413.21,31.0333333 413.583333,28.8983333 414.33,27.055 C415.076667,25.2116667 416.08,23.6833333 417.34,22.47 C418.6,21.2566667 420.07,20.3466667 421.75,19.74 C423.43,19.1333333 425.203333,18.83 427.07,18.83 C428.376667,18.83 429.52,18.9233333 430.5,19.11 C431.48,19.2966667 432.296667,19.5066667 432.95,19.74 C433.79,19.9733333 434.443333,20.2533333 434.91,20.58 L439.53,17.99 L440.16,18.2 L440.16,44.73 C440.16,46.5033333 439.798333,48.1483333 439.075,49.665 C438.351667,51.1816667 437.36,52.5 436.1,53.62 C434.84,54.74 433.335,55.6266667 431.585,56.28 C429.835,56.9333333 427.956667,57.26 425.95,57.26 C423.383333,57.26 421.33,57.085 419.79,56.735 C418.25,56.385 417.06,55.93 416.22,55.37 C415.38,54.81 414.831667,54.1916667 414.575,53.515 C414.318333,52.8383333 414.19,52.15 414.19,51.45 C414.19,50.47 414.505,49.7116667 415.135,49.175 C415.765,48.6383333 416.57,48.37 417.55,48.37 C418.53,48.37 419.276667,48.5216667 419.79,48.825 C420.303333,49.1283333 420.688333,49.5133333 420.945,49.98 C421.201667,50.4466667 421.4,50.9483333 421.54,51.485 C421.68,52.0216667 421.901667,52.5233333 422.205,52.99 C422.508333,53.4566667 422.951667,53.8416667 423.535,54.145 C424.118333,54.4483333 424.993333,54.6 426.16,54.6 C428.166667,54.6 429.73,53.9116667 430.85,52.535 C431.97,51.1583333 432.53,48.86 432.53,45.64 L432.53,38.43 C432.296667,39.41 431.97,40.355 431.55,41.265 C431.13,42.175 430.581667,42.98 429.905,43.68 C429.228333,44.38 428.411667,44.94 427.455,45.36 C426.498333,45.78 425.366667,45.99 424.06,45.99 Z M432.53,31.15 C432.53,30.17 432.483333,29.1433333 432.39,28.07 C432.296667,26.9966667 432.086667,26.005 431.76,25.095 C431.433333,24.185 430.931667,23.4266667 430.255,22.82 C429.578333,22.2133333 428.656667,21.91 427.49,21.91 C426.836667,21.91 426.148333,22.0383333 425.425,22.295 C424.701667,22.5516667 424.036667,23.0416667 423.43,23.765 C422.823333,24.4883333 422.321667,25.4916667 421.925,26.775 C421.528333,28.0583333 421.33,29.7033333 421.33,31.71 C421.33,34.5566667 421.773333,36.9016667 422.66,38.745 C423.546667,40.5883333 424.923333,41.51 426.79,41.51 C427.676667,41.51 428.481667,41.2416667 429.205,40.705 C429.928333,40.1683333 430.535,39.445 431.025,38.535 C431.515,37.625 431.888333,36.5516667 432.145,35.315 C432.401667,34.0783333 432.53,32.76 432.53,31.36 L432.53,31.15 Z" id="g"></path>
                <path d="M472.01,29.75 L454.65,29.75 C454.556667,30.2166667 454.498333,30.4966667 454.475,30.59 C454.451667,30.6833333 454.44,30.9633333 454.44,31.43 C454.44,32.9233333 454.65,34.2883333 455.07,35.525 C455.49,36.7616667 456.085,37.835 456.855,38.745 C457.625,39.655 458.546667,40.3666667 459.62,40.88 C460.693333,41.3933333 461.906667,41.65 463.26,41.65 C464.893333,41.65 466.398333,41.4283333 467.775,40.985 C469.151667,40.5416667 470.61,39.5733333 472.15,38.08 L472.43,39.13 C471.87,40.2033333 471.228333,41.23 470.505,42.21 C469.781667,43.19 468.906667,44.0533333 467.88,44.8 C466.853333,45.5466667 465.651667,46.1533333 464.275,46.62 C462.898333,47.0866667 461.276667,47.32 459.41,47.32 C457.45,47.32 455.653333,46.9816667 454.02,46.305 C452.386667,45.6283333 450.998333,44.66 449.855,43.4 C448.711667,42.14 447.825,40.6233333 447.195,38.85 C446.565,37.0766667 446.25,35.0933333 446.25,32.9 C446.25,30.7066667 446.588333,28.7116667 447.265,26.915 C447.941667,25.1183333 448.898333,23.5783333 450.135,22.295 C451.371667,21.0116667 452.876667,20.02 454.65,19.32 C456.423333,18.62 458.406667,18.27 460.6,18.27 C462.606667,18.27 464.31,18.5733333 465.71,19.18 C467.11,19.7866667 468.265,20.615 469.175,21.665 C470.085,22.715 470.761667,23.94 471.205,25.34 C471.648333,26.74 471.916667,28.21 472.01,29.75 Z M455,27.16 L461.58,27.16 C462.84,27.16 463.47,26.5533333 463.47,25.34 C463.47,23.9866667 463.26,22.8316667 462.84,21.875 C462.42,20.9183333 461.58,20.44 460.32,20.44 C457.66,20.44 455.886667,22.68 455,27.16 Z" id="e"></path>
                <path d="M511.42,44.59 L513.45,44.17 C514.57,43.9366667 515.316667,43.645 515.69,43.295 C516.063333,42.945 516.25,42.2566667 516.25,41.23 L516.25,29.4 C516.25,28.6533333 516.203333,27.895 516.11,27.125 C516.016667,26.355 515.83,25.655 515.55,25.025 C515.27,24.395 514.85,23.8933333 514.29,23.52 C513.73,23.1466667 513.006667,22.96 512.12,22.96 C510.953333,22.96 509.833333,23.4616667 508.76,24.465 C507.686667,25.4683333 506.8,26.6233333 506.1,27.93 L506.1,40.67 C506.1,41.65 506.193333,42.3966667 506.38,42.91 C506.566667,43.4233333 507.08,43.7733333 507.92,43.96 L510.09,44.66 L510.09,46.48 C507.71,46.2933333 505.143333,46.2 502.39,46.2 C499.636667,46.2 496.976667,46.2933333 494.41,46.48 L494.41,44.66 L495.81,44.24 C496.603333,44.0066667 497.175,43.645 497.525,43.155 C497.875,42.665 498.05,41.9533333 498.05,41.02 L498.05,29.47 C498.05,28.7233333 497.98,27.9533333 497.84,27.16 C497.7,26.3666667 497.478333,25.6666667 497.175,25.06 C496.871667,24.4533333 496.451667,23.9516667 495.915,23.555 C495.378333,23.1583333 494.69,22.96 493.85,22.96 C493.056667,22.96 492.345,23.1116667 491.715,23.415 C491.085,23.7183333 490.525,24.115 490.035,24.605 C489.545,25.095 489.125,25.6316667 488.775,26.215 C488.425,26.7983333 488.133333,27.3466667 487.9,27.86 L487.9,40.74 C487.9,41.9066667 488.051667,42.7 488.355,43.12 C488.658333,43.54 489.136667,43.82 489.79,43.96 L492.66,44.66 L492.66,46.48 C491.493333,46.3866667 490.175,46.3166667 488.705,46.27 C487.235,46.2233333 485.73,46.2 484.19,46.2 C482.65,46.2 481.133333,46.2233333 479.64,46.27 C478.146667,46.3166667 476.77,46.3866667 475.51,46.48 L475.51,44.66 L477.26,44.24 C478.286667,44.0066667 478.975,43.68 479.325,43.26 C479.675,42.84 479.85,42.14 479.85,41.16 L479.85,26.74 C479.85,26.1333333 479.826667,25.6433333 479.78,25.27 C479.733333,24.8966667 479.593333,24.5933333 479.36,24.36 C479.126667,24.1266667 478.776667,23.9283333 478.31,23.765 C477.843333,23.6016667 477.19,23.45 476.35,23.31 L476.35,22.19 C476.956667,22.05 477.726667,21.8283333 478.66,21.525 C479.593333,21.2216667 480.561667,20.86 481.565,20.44 C482.568333,20.02 483.525,19.5183333 484.435,18.935 C485.345,18.3516667 486.056667,17.71 486.57,17.01 L487.9,17.01 L487.9,23.73 C489.813333,21.8633333 491.423333,20.4983333 492.73,19.635 C494.036667,18.7716667 495.506667,18.3166667 497.14,18.27 C499.473333,18.2233333 501.351667,18.62 502.775,19.46 C504.198333,20.3 505.236667,21.8866667 505.89,24.22 C506.636667,23.38 507.336667,22.5866667 507.99,21.84 C508.643333,21.0933333 509.331667,20.4633333 510.055,19.95 C510.778333,19.4366667 511.583333,19.0283333 512.47,18.725 C513.356667,18.4216667 514.406667,18.27 515.62,18.27 C517.02,18.27 518.268333,18.41 519.365,18.69 C520.461667,18.97 521.371667,19.4833333 522.095,20.23 C522.818333,20.9766667 523.366667,21.9683333 523.74,23.205 C524.113333,24.4416667 524.3,25.9933333 524.3,27.86 L524.3,41.3 C524.3,43.0266667 524.673333,43.96 525.42,44.1 L527.87,44.66 L527.87,46.48 C526.703333,46.3866667 525.361667,46.3283333 523.845,46.305 C522.328333,46.2816667 520.8,46.27 519.26,46.27 C517.72,46.27 516.261667,46.2816667 514.885,46.305 C513.508333,46.3283333 512.353333,46.3633333 511.42,46.41 L511.42,44.59 Z" id="m"></path>
                <path d="M556.85,29.75 L539.49,29.75 C539.396667,30.2166667 539.338333,30.4966667 539.315,30.59 C539.291667,30.6833333 539.28,30.9633333 539.28,31.43 C539.28,32.9233333 539.49,34.2883333 539.91,35.525 C540.33,36.7616667 540.925,37.835 541.695,38.745 C542.465,39.655 543.386667,40.3666667 544.46,40.88 C545.533333,41.3933333 546.746667,41.65 548.1,41.65 C549.733333,41.65 551.238333,41.4283333 552.615,40.985 C553.991667,40.5416667 555.45,39.5733333 556.99,38.08 L557.27,39.13 C556.71,40.2033333 556.068333,41.23 555.345,42.21 C554.621667,43.19 553.746667,44.0533333 552.72,44.8 C551.693333,45.5466667 550.491667,46.1533333 549.115,46.62 C547.738333,47.0866667 546.116667,47.32 544.25,47.32 C542.29,47.32 540.493333,46.9816667 538.86,46.305 C537.226667,45.6283333 535.838333,44.66 534.695,43.4 C533.551667,42.14 532.665,40.6233333 532.035,38.85 C531.405,37.0766667 531.09,35.0933333 531.09,32.9 C531.09,30.7066667 531.428333,28.7116667 532.105,26.915 C532.781667,25.1183333 533.738333,23.5783333 534.975,22.295 C536.211667,21.0116667 537.716667,20.02 539.49,19.32 C541.263333,18.62 543.246667,18.27 545.44,18.27 C547.446667,18.27 549.15,18.5733333 550.55,19.18 C551.95,19.7866667 553.105,20.615 554.015,21.665 C554.925,22.715 555.601667,23.94 556.045,25.34 C556.488333,26.74 556.756667,28.21 556.85,29.75 Z M539.84,27.16 L546.42,27.16 C547.68,27.16 548.31,26.5533333 548.31,25.34 C548.31,23.9866667 548.1,22.8316667 547.68,21.875 C547.26,20.9183333 546.42,20.44 545.16,20.44 C542.5,20.44 540.726667,22.68 539.84,27.16 Z" id="e"></path>
                <path d="M595.35,46.41 C592.923333,46.27 590.228333,46.2 587.265,46.2 C584.301667,46.2 581.606667,46.27 579.18,46.41 L579.18,44.66 L581.63,44.1 C582.656667,43.96 583.17,43.05 583.17,41.37 L583.17,29.61 C583.17,28.5833333 583.135,27.685 583.065,26.915 C582.995,26.145 582.831667,25.4916667 582.575,24.955 C582.318333,24.4183333 581.921667,24.0216667 581.385,23.765 C580.848333,23.5083333 580.113333,23.38 579.18,23.38 C578.106667,23.38 576.975,23.7183333 575.785,24.395 C574.595,25.0716667 573.603333,25.8766667 572.81,26.81 L572.81,42.14 C572.81,42.8866667 573.37,43.4 574.49,43.68 L576.52,44.66 L576.52,46.41 C575.866667,46.3166667 575.236667,46.2583333 574.63,46.235 C574.023333,46.2116667 573.3,46.2 572.46,46.2 L568.19,46.2 C566.696667,46.2 565.191667,46.2116667 563.675,46.235 C562.158333,46.2583333 561.05,46.3166667 560.35,46.41 L560.35,44.66 L563.36,43.96 C563.826667,43.8666667 564.176667,43.6566667 564.41,43.33 C564.643333,43.0033333 564.76,42.5133333 564.76,41.86 L564.76,28.07 C564.76,26.6233333 564.468333,25.6433333 563.885,25.13 C563.301667,24.6166667 562.263333,24.2433333 560.77,24.01 L560.77,22.68 C561.516667,22.4933333 562.391667,22.26 563.395,21.98 C564.398333,21.7 565.39,21.3383333 566.37,20.895 C567.35,20.4516667 568.26,19.915 569.1,19.285 C569.94,18.655 570.57,17.8966667 570.99,17.01 L572.81,17.01 L572.81,23.8 C574.21,22.0733333 575.726667,20.72 577.36,19.74 C578.993333,18.76 580.626667,18.27 582.26,18.27 C584.966667,18.27 587.136667,19.0633333 588.77,20.65 C590.403333,22.2366667 591.22,24.64 591.22,27.86 L591.22,41.16 C591.22,42.0933333 591.336667,42.77 591.57,43.19 C591.803333,43.61 592.27,43.9133333 592.97,44.1 L595.35,44.66 L595.35,46.41 Z" id="n"></path>
                <path d="M608.93,12.46 L610.47,12.46 C610.47,13.72 610.481667,14.9683333 610.505,16.205 C610.528333,17.4416667 610.54,18.69 610.54,19.95 L619.29,19.74 L619.29,23.03 L610.54,23.31 L610.54,35.91 C610.54,38.01 610.796667,39.5383333 611.31,40.495 C611.823333,41.4516667 612.896667,41.93 614.53,41.93 C615.23,41.93 616,41.8483333 616.84,41.685 C617.68,41.5216667 618.59,41.02 619.57,40.18 L620.2,41.16 C619.873333,41.8133333 619.43,42.5016667 618.87,43.225 C618.31,43.9483333 617.621667,44.6133333 616.805,45.22 C615.988333,45.8266667 615.066667,46.3283333 614.04,46.725 C613.013333,47.1216667 611.846667,47.32 610.54,47.32 C607.88,47.32 605.896667,46.655 604.59,45.325 C603.283333,43.995 602.63,41.72 602.63,38.5 L602.63,23.45 C601.976667,23.45 601.346667,23.4616667 600.74,23.485 C600.133333,23.5083333 599.503333,23.52 598.85,23.52 C598.196667,23.52 597.858333,23.2166667 597.835,22.61 C597.811667,22.0033333 598.126667,21.56 598.78,21.28 C599.806667,20.86 600.751667,20.4166667 601.615,19.95 C602.478333,19.4833333 603.19,19.0166667 603.75,18.55 C604.403333,18.0366667 605.278333,17.2666667 606.375,16.24 C607.471667,15.2133333 608.323333,13.9533333 608.93,12.46 Z" id="t"></path>
            </g>
        </g>
    </g>
</svg>