<?xml version="1.0" encoding="UTF-8"?>
<svg width="21px" height="21px" viewBox="0 0 21 21" version="1.1" xmlns="http://www.w3.org/2000/svg" xmlns:xlink="http://www.w3.org/1999/xlink">
    <title>结算中心</title>
    <g id="供应商" stroke="none" stroke-width="1" fill="none" fill-rule="evenodd">
        <g id="结算中心" fill="#FFFFFF" fill-rule="nonzero">
            <path d="M10.5,21 C9.08202824,21 7.7071887,20.7223363 6.41322208,20.1750963 C5.16238768,19.6467266 4.04094994,18.8892169 3.0758665,17.9241335 C2.11078306,16.9590501 1.35596919,15.8376123 0.824903723,14.5867779 C0.277663671,13.2928113 -7.66182154e-16,11.915276 -7.66182154e-16,10.5 C-7.66182154e-16,9.08472401 0.277663671,7.7071887 0.824903723,6.41322208 C1.35327343,5.16238768 2.11078306,4.04094994 3.0758665,3.0758665 C4.04094994,2.11078306 5.16238768,1.35596919 6.41322208,0.824903723 C7.7071887,0.277663671 9.08472401,-7.66182154e-16 10.5,-7.66182154e-16 C11.915276,-7.66182154e-16 13.2928113,0.277663671 14.5867779,0.824903723 C15.8376123,1.35327343 16.9590501,2.11078306 17.9241335,3.0758665 C18.8892169,4.04094994 19.6440308,5.16238768 20.1750963,6.41322208 C20.7223363,7.7071887 21,9.08472401 21,10.5 C21,11.9179718 20.7223363,13.2928113 20.1750963,14.5867779 C19.6467266,15.8376123 18.8892169,16.9590501 17.9241335,17.9241335 C16.9590501,18.8892169 15.8376123,19.6440308 14.5867779,20.1750963 C13.2928113,20.7223363 11.9179718,21 10.5,21 Z M10.5,1.61745828 C5.60179718,1.61745828 1.61745828,5.60179718 1.61745828,10.5 C1.61745828,15.3982028 5.60179718,19.3825417 10.5,19.3825417 C15.3982028,19.3825417 19.3825417,15.3982028 19.3825417,10.5 C19.3825417,5.60179718 15.3982028,1.61745828 10.5,1.61745828 Z M13.8750963,11.1038511 L7.18690629,11.1038511 C6.7394095,11.1038511 6.37817715,10.7426187 6.37817715,10.295122 C6.37817715,9.84762516 6.7394095,9.48639281 7.18690629,9.48639281 L13.8750963,9.48639281 C14.3225931,9.48639281 14.6838254,9.84762516 14.6838254,10.295122 C14.6838254,10.739923 14.3225931,11.1038511 13.8750963,11.1038511 Z M13.8481386,13.8535302 L7.15994865,13.8535302 C6.71245186,13.8535302 6.35121951,13.4922978 6.35121951,13.044801 C6.35121951,12.5973042 6.71245186,12.2360719 7.15994865,12.2360719 L13.8481386,12.2360719 C14.2956354,12.2360719 14.6568678,12.5973042 14.6568678,13.044801 C14.6568678,13.4922978 14.2956354,13.8535302 13.8481386,13.8535302 Z M10.5053915,17.1261874 C10.0578947,17.1261874 9.69666239,16.7649551 9.69666239,16.3174583 L9.69666239,10.295122 C9.69666239,9.84762516 10.0578947,9.48639281 10.5053915,9.48639281 C10.9528883,9.48639281 11.3141207,9.84762516 11.3141207,10.295122 L11.3141207,16.320154 C11.3141207,16.7649551 10.9528883,17.1261874 10.5053915,17.1261874 Z M10.5350449,10.4568678 C10.3220796,10.4568678 10.1091142,10.3732991 9.95006418,10.2061617 L6.57496791,6.66931964 C6.26765083,6.34582798 6.27843389,5.83363286 6.60192555,5.52631579 C6.9254172,5.21899872 7.43761232,5.22978177 7.7449294,5.55327343 L11.1173299,9.09011553 C11.424647,9.41360719 11.4138639,9.92580231 11.0903723,10.2331194 C10.9367137,10.3813864 10.7345315,10.4568678 10.5350449,10.4568678 L10.5350449,10.4568678 Z M10.4919127,10.4326059 C10.2924262,10.4326059 10.0902439,10.3571245 9.9338896,10.2088575 C9.61039795,9.90154044 9.59961489,9.38934531 9.90693196,9.06585366 L13.2793325,5.52901155 C13.5866496,5.2055199 14.0988447,5.19473684 14.4223363,5.50205392 C14.745828,5.80937099 14.756611,6.32156611 14.449294,6.64505777 L11.0768935,10.1818999 C10.9178434,10.3490372 10.704878,10.4326059 10.4919127,10.4326059 Z" id="形状"></path>
        </g>
    </g>
</svg>