<?xml version="1.0" encoding="UTF-8"?>
<svg width="16px" height="18px" viewBox="0 0 16 18" version="1.1" xmlns="http://www.w3.org/2000/svg" xmlns:xlink="http://www.w3.org/1999/xlink">
    <title>合同管理</title>
    <g id="供应商" stroke="none" stroke-width="1" fill="none" fill-rule="evenodd">
        <g id="合同管理" fill="#FFFFFF" fill-rule="nonzero">
            <path d="M7.57141858,6.04477259 C7.80810804,6.04477259 7.99992881,5.84181495 7.99992881,5.5914367 C7.99992881,5.34105845 7.80810804,5.13803626 7.57141858,5.13803626 L3.57143384,5.13803626 C3.3347037,5.13803626 3.14282191,5.34105845 3.14282191,5.5914367 C3.14282191,5.84181495 3.33474438,6.04477259 3.57143384,6.04477259 L7.57141858,6.04477259 Z M3.14282191,9.00001076 C3.14282191,9.25038901 3.33468336,9.4534112 3.57143384,9.4534112 L12.1429198,9.4534112 C12.3795076,9.4534112 12.57143,9.25038901 12.57143,9.00001076 C12.57143,8.74963251 12.3795076,8.54667487 12.1429198,8.54667487 L3.57143384,8.54667487 C3.33474438,8.54665335 3.14282191,8.74963251 3.14282191,9.00001076 Z M11.4285801,0 L1.14284988,0 C0.511677987,0 0,0.541249058 0,1.20894591 L0,16.7910541 C0,17.4587079 0.511657647,18 1.14284988,18 L14.8571501,18 C15.4883017,18 16,17.4586864 16,16.7910541 L16,5.13805777 L11.4285801,0 Z M11.4285801,1.20896743 L14.8571501,5.13803626 L12.0000559,5.13803626 C11.684348,5.13803626 11.4285801,4.86743325 11.4285801,4.53361709 L11.4285801,1.20896743 Z M14.285776,16.7910541 L1.71428499,16.7910541 C1.39865836,16.7910541 1.14287022,16.520408 1.14287022,16.1866349 L1.14287022,1.81342962 C1.14287022,1.47961347 1.39871938,1.20896743 1.71428499,1.20896743 L10.571397,1.20896743 L10.571397,4.83582668 C10.571397,5.50350201 11.0831156,6.04477259 11.7143485,6.04477259 L14.8571908,6.04477259 L14.8571908,16.1866349 C14.8571908,16.520408 14.601301,16.7910541 14.285776,16.7910541 Z M12.1429198,12.2574155 L3.57143384,12.2574155 C3.3347037,12.2574155 3.14282191,12.4604377 3.14282191,12.7108159 C3.14282191,12.9613017 3.33468336,13.1642164 3.57143384,13.1642164 L12.1429198,13.1642164 C12.3795076,13.1642164 12.57143,12.9613017 12.57143,12.7108159 C12.57143,12.4604377 12.3795076,12.2574155 12.1429198,12.2574155 Z" id="形状"></path>
        </g>
    </g>
</svg>