<?xml version="1.0" encoding="UTF-8"?>
<svg width="18px" height="20px" viewBox="0 0 18 20" version="1.1" xmlns="http://www.w3.org/2000/svg" xmlns:xlink="http://www.w3.org/1999/xlink">
    <title>菜单栏-合同-合同订单</title>
    <g id="供应商" stroke="none" stroke-width="1" fill="none" fill-rule="evenodd">
        <g id="菜单栏-合同-合同订单" fill="#FFFFFF" fill-rule="nonzero">
            <path d="M13.1297891,10.5853198 C13.450324,10.5853198 13.7405052,10.7670522 13.8740615,11.0502714 L14.8769472,13.1862167 L17.2761023,13.4529148 C17.5941075,13.4888346 17.8613588,13.701693 17.9600868,13.9976902 C18.0588149,14.2936874 17.9708869,14.6184589 17.7350499,14.8288884 L15.9563241,16.4149162 L16.4359123,18.7160727 C16.4990972,19.0211202 16.3734571,19.3339655 16.1143591,19.516744 C15.855261,19.6995225 15.510294,19.7186629 15.2314782,19.5657305 L13.1297891,18.411612 L11.026886,19.5657305 C10.7480701,19.7186629 10.4031031,19.6995225 10.1440051,19.516744 C9.88490705,19.3339655 9.75926693,19.0211202 9.82245183,18.7160727 L10.30204,16.4149162 L8.5233142,14.8288884 C8.28740579,14.6183 8.19959428,14.2932978 8.29860906,13.9972243 C8.39762383,13.7011509 8.66525991,13.4884426 8.98347605,13.4529148 L11.3826311,13.1850366 L12.3855168,11.0502714 C12.519073,10.7670522 12.8092543,10.5853198 13.1297891,10.5853198 Z M13.1297891,13.294784 L12.6793405,14.2541893 C12.5601625,14.5081758 12.3127125,14.6828457 12.0273434,14.7144206 L10.9503947,14.8347888 L11.7493036,15.5475572 C11.9605653,15.7363701 12.0552688,16.0184093 11.9982038,16.2910078 L11.7820856,17.3247581 L12.7266922,16.8055228 C12.9764703,16.6683852 13.2818939,16.6683852 13.5316719,16.8055228 L14.4762785,17.3247581 L14.2613745,16.2910078 C14.2043558,16.0181365 14.2983009,15.7361523 14.5090605,15.5475572 L15.3091836,14.8347888 L14.2310208,14.7144206 C13.9461026,14.6824535 13.6991975,14.5078431 13.5802378,14.2541893 L13.1297891,13.294784 L13.1297891,13.294784 Z" id="形状"></path>
            <path d="M1.76415607,0 C0.790409907,0 0,0.768232241 0,1.71583667 L0,18.2841633 C0,19.2317678 0.78919575,20 1.76415607,20 L7.44636554,20 C7.89831964,20 8.26470082,19.6438989 8.26470082,19.2046259 C8.26470082,18.7653529 7.89831964,18.4092518 7.44636554,18.4092518 L1.76415607,18.4092518 C1.69307723,18.4092518 1.63545644,18.3532478 1.63545644,18.2841633 L1.63545644,1.71583667 C1.63545644,1.64739201 1.69373551,1.59074815 1.76415607,1.59074815 L10.417384,1.59074815 L10.417384,5.39768704 C10.417384,5.83667689 10.7828424,6.19306112 11.2357193,6.19306112 L15.1525586,6.19306112 L15.1525586,9.5397687 C15.1410097,9.83102229 15.2942927,10.1050866 15.5520533,10.2540506 C15.8098139,10.4030145 16.1307597,10.4030145 16.3885203,10.2540506 C16.6462809,10.1050866 16.7995639,9.83102229 16.788015,9.5397687 L16.788015,5.39768704 C16.7883165,5.19939565 16.7120613,5.00821108 16.5743251,4.8619306 L12.3163104,0.263157877 C12.1613712,0.0959122522 11.9407869,0.000292073081 11.7092368,0 L1.7653702,0 L1.76415607,0 Z M12.0528405,2.35662024 L14.1326748,4.60231296 L12.0528405,4.60231296 L12.0528405,2.35662024 Z" id="形状"></path>
        </g>
    </g>
</svg>