<?xml version="1.0" standalone="no"?><!DOCTYPE svg PUBLIC "-//W3C//DTD SVG 1.1//EN" "http://www.w3.org/Graphics/SVG/1.1/DTD/svg11.dtd"><svg t="1667876017386" class="icon" viewBox="0 0 1024 1024" version="1.1" xmlns="http://www.w3.org/2000/svg" p-id="2735" xmlns:xlink="http://www.w3.org/1999/xlink" width="32" height="32"><path d="M196.923077 78.769231a118.153846 118.153846 0 0 0-118.153846 118.153846v630.153846a118.153846 118.153846 0 0 0 118.153846 118.153846h630.153846a118.153846 118.153846 0 0 0 118.153846-118.153846V196.923077a118.153846 118.153846 0 0 0-118.153846-118.153846H196.923077z m0-78.769231h630.153846a196.923077 196.923077 0 0 1 196.923077 196.923077v630.153846a196.923077 196.923077 0 0 1-196.923077 196.923077H196.923077a196.923077 196.923077 0 0 1-196.923077-196.923077V196.923077a196.923077 196.923077 0 0 1 196.923077-196.923077z" p-id="2736" fill="#bfbfbf"></path></svg>