<?xml version="1.0" standalone="no"?><!DOCTYPE svg PUBLIC "-//W3C//DTD SVG 1.1//EN" "http://www.w3.org/Graphics/SVG/1.1/DTD/svg11.dtd"><svg t="1667875985273" class="icon" viewBox="0 0 1024 1024" version="1.1" xmlns="http://www.w3.org/2000/svg" p-id="2527" width="32" height="32" xmlns:xlink="http://www.w3.org/1999/xlink"><path d="M196.923077 0h630.153846a196.923077 196.923077 0 0 1 196.923077 196.923077v630.153846a196.923077 196.923077 0 0 1-196.923077 196.923077H196.923077a196.923077 196.923077 0 0 1-196.923077-196.923077V196.923077a196.923077 196.923077 0 0 1 196.923077-196.923077z m0 78.769231a118.153846 118.153846 0 0 0-118.153846 118.153846v630.153846a118.153846 118.153846 0 0 0 118.153846 118.153846h630.153846a118.153846 118.153846 0 0 0 118.153846-118.153846V196.923077a118.153846 118.153846 0 0 0-118.153846-118.153846H196.923077z m584.900923 258.205538a36.509538 36.509538 0 0 1 1.260308 51.633231l-299.480616 313.107692c-0.118154 0.157538-0.393846 0.236308-0.630154 0.472616l-0.393846 0.551384c-2.166154 2.126769-4.726154 3.229538-7.207384 4.726154-1.575385 0.866462-2.796308 2.166154-4.411077 2.835692a35.800615 35.800615 0 0 1-27.490462 0.07877c-1.260308-0.512-2.284308-1.614769-3.544615-2.284308-2.756923-1.457231-5.592615-2.835692-8.034462-5.12-0.196923-0.157538-0.275692-0.433231-0.512-0.669538-0.196923-0.118154-0.393846-0.196923-0.551384-0.354462l-150.843077-156.593231a36.430769 36.430769 0 0 1 0.945231-51.633231 36.391385 36.391385 0 0 1 51.63323 0.945231l124.455385 129.102769 273.092923-285.61723a36.548923 36.548923 0 0 1 51.712-1.181539z" p-id="2528" fill="#1296db"></path></svg>