<?xml version="1.0" encoding="UTF-8"?>
<svg width="17px" height="20px" viewBox="0 0 17 20" version="1.1" xmlns="http://www.w3.org/2000/svg" xmlns:xlink="http://www.w3.org/1999/xlink">
    <title>质量报告</title>
    <g id="供应商" stroke="none" stroke-width="1" fill="none" fill-rule="evenodd">
        <g id="质量报告" fill="#FFFFFF" fill-rule="nonzero">
            <path d="M4.25000001,1.53845367 C4.66682055,1.53660442 5.01000212,1.86417621 5.02564159,2.27882266 C5.04128105,2.69346912 4.7237414,3.0457367 4.30795456,3.075 L4.25000001,3.07692307 L1.54545455,3.07692307 L1.54545455,18.4615385 L15.4545454,18.4615385 L15.4545454,3.07692307 L12.9431818,3.07692307 C12.5263614,3.07877999 12.1831801,2.75120825 12.1675406,2.33656193 C12.1519011,1.92191561 12.4694406,1.56964809 12.8852273,1.54038462 L12.9431818,1.53845367 L15.4545454,1.53845367 C16.2780414,1.53845367 16.9568934,2.18125559 16.9980682,3 L17,3.07692307 L17,18.4615385 C17,19.2813082 16.3542841,19.9570884 15.5318182,19.9980769 L15.4545454,20 L1.54545455,20 C0.721958567,20 0.0431066403,19.357206 0.00193183327,18.5384537 L0,18.4615385 L0,3.07692307 C0,2.2571533 0.645715853,1.5813731 1.46818183,1.54038462 L1.54545455,1.53845367 L4.25000001,1.53845367 Z" id="路径"></path>
            <path d="M11.2045455,0 L5.79545454,0 C4.51852273,0 3.47727272,1.03653847 3.47727272,2.30769231 C3.47727272,3.57884615 4.51852273,4.61538462 5.79545454,4.61538462 L11.2045455,4.61538462 C12.4814773,4.61538462 13.5227273,3.57884615 13.5227273,2.30769231 C13.5227273,1.03653847 12.4814773,0 11.2045455,0 L11.2045455,0 Z M5.79545454,1.53846152 L11.2045455,1.53846152 C11.6276136,1.53846152 11.9772727,1.88653844 11.9772727,2.30769231 C11.9772727,2.72884618 11.6276136,3.07692307 11.2045455,3.07692307 L5.79545454,3.07692307 C5.37238636,3.07692307 5.02272728,2.72884616 5.02272728,2.30769231 C5.02272728,1.88653846 5.37238636,1.53846152 5.79545454,1.53846152 Z" id="形状"></path>
            <path d="M12.2036818,7.91769231 L13.2963182,9.00538461 L8.2735909,14.0053846 C7.97184102,14.3056784 7.48270443,14.3056784 7.18095455,14.0053846 L4.09004547,10.9284615 L5.18268182,9.84076923 L7.72727274,12.3730769 L12.2036818,7.91730769 L12.2036818,7.91769231 Z" id="路径"></path>
        </g>
    </g>
</svg>