<?xml version="1.0" encoding="UTF-8"?>
<svg width="159px" height="56px" viewBox="0 0 159 56" version="1.1" xmlns="http://www.w3.org/2000/svg" xmlns:xlink="http://www.w3.org/1999/xlink">
    <title>登录</title>
    <g id="供应商" stroke="none" stroke-width="1" fill="none" fill-rule="evenodd">
        <g transform="translate(-751.000000, -652.000000)" fill="#FFFFFF" fill-rule="nonzero" id="登录-2">
            <g transform="translate(751.000000, 652.000000)">
                <g id="登录" transform="translate(0.000000, -0.000000)">
                    <path d="M38.948808,40.872 L41.800008,38.9008 C39.899208,35.5216 37.153608,31.544 33.563208,26.968 L30.888008,28.6928 C32.577608,30.9456 34.126408,33.0928 35.534408,35.2048 C32.296008,35.5216 26.910408,35.9792 19.342408,36.5424 C21.665608,34.1136 23.953608,30.5584 26.206408,25.8416 L42.856008,25.8416 L42.856008,22.568 L28.811208,22.568 L28.811208,16.76 L40.603208,16.76 L40.603208,13.5216 L28.811208,13.5216 L28.811208,8.2064 L25.432008,8.2064 L25.432008,13.5216 L13.569608,13.5216 L13.569608,16.76 L25.432008,16.76 L25.432008,22.568 L11.352008,22.568 L11.352008,25.8416 L22.510408,25.8416 C19.483208,31.6848 16.491208,35.416 13.604808,36.9648 L14.203208,39.6752 C21.454408,39.288 29.163208,38.7248 37.294408,37.9856 C37.857608,38.9712 38.420808,39.9216 38.948808,40.872 Z M48.136008,24.4688 C51.480008,23.0608 54.296008,21.3712 56.584008,19.3648 L56.584008,20.4912 L69.467208,20.4912 L69.467208,19.1536 C71.579208,21.0544 74.043208,22.8144 76.859208,24.3984 L79.076808,21.8288 C77.105608,20.8432 75.345608,19.752 73.761608,18.5552 C75.240008,17.4288 76.507208,16.1616 77.633608,14.7536 L75.275208,12.6768 C74.219208,14.0848 72.916808,15.3872 71.368008,16.584 C70.593608,15.88 69.889608,15.1408 69.256008,14.4016 C70.734408,13.3456 72.072008,12.1488 73.198408,10.776 L70.840008,8.6992 C69.854408,9.896 68.728008,11.0224 67.425608,12.0432 C66.580808,10.8464 65.876808,9.544 65.313608,8.1712 L62.568008,9.72 C63.800008,12.536 65.524808,15.1056 67.777608,17.464 L58.484808,17.464 C59.963208,15.7744 61.124808,13.8384 61.969608,11.7264 L61.969608,9.2272 L49.931208,9.2272 L49.931208,12.2896 L58.168008,12.2896 C57.323208,13.768 56.267208,15.1408 54.929608,16.4784 C53.662408,15.2816 52.184008,14.0496 50.494408,12.8528 L48.241608,15 C49.931208,16.1968 51.374408,17.3232 52.571208,18.4144 C50.740808,19.6816 48.593608,20.8432 46.129608,21.8288 L48.136008,24.4688 Z M72.459208,31.8608 L72.459208,22.8848 L52.324808,22.8848 L52.324808,31.8608 L72.459208,31.8608 Z M69.115208,28.904 L55.668808,28.904 L55.668808,25.8064 L69.115208,25.8064 L69.115208,28.904 Z M77.457608,39.6752 L77.457608,36.5072 L69.502408,36.5072 C70.276808,35.4864 71.016008,34.3952 71.684808,33.1984 L68.552008,32.1072 C67.777608,33.6208 66.897608,35.0992 65.912008,36.5072 L59.188808,36.5072 C58.238408,34.8528 57.182408,33.4448 56.056008,32.248 L52.888008,33.4096 C53.944008,34.36 54.859208,35.3808 55.633608,36.5072 L47.115208,36.5072 L47.115208,39.6752 L77.457608,39.6752 Z M95.867208,40.6608 C97.908808,40.6608 98.964808,39.464 98.964808,37.0704 L98.964808,30.9808 C102.062408,34.36 106.110408,37.2464 111.179208,39.64 L112.868808,36.6832 C109.348808,35.1696 106.286408,33.4448 103.611208,31.4736 C106.004808,30.1712 108.116808,28.3408 109.982408,26.0176 L107.412808,23.8704 C105.723208,26.3696 103.681608,28.2704 101.323208,29.608 C100.478408,28.8688 99.704008,28.0944 98.964808,27.2848 L98.964808,23.6944 L112.728008,23.6944 L112.728008,20.632 L106.673608,20.632 L106.673608,9.2624 L85.870408,9.2624 L85.870408,12.2544 L103.259208,12.2544 L103.259208,15.0352 L87.067208,15.0352 L87.067208,17.9216 L103.259208,17.9216 L103.259208,20.632 L82.350408,20.632 L82.350408,23.6944 L95.656008,23.6944 L95.656008,27.672 C91.784008,31.0864 87.172808,34.008 81.857608,36.4368 L83.195208,39.5344 C87.982408,37.0352 92.136008,34.2544 95.656008,31.1568 L95.656008,36.296 C95.656008,37.2464 95.339208,37.7392 94.740808,37.7392 C93.579208,37.7392 92.347208,37.6336 91.044808,37.4928 L91.784008,40.6608 L95.867208,40.6608 Z M89.636808,30.9104 L91.819208,28.728 C90.411208,27.32 88.651208,25.8768 86.574408,24.4336 L84.356808,26.5808 C86.609608,28.1296 88.369608,29.5728 89.636808,30.9104 Z" id="去登录"></path>
                    <g id="箭头" transform="translate(0.000000, 36.800000)">
                        <polygon id="路径" transform="translate(79.500000, 9.600000) scale(-1, 1) translate(-79.500000, -9.600000) " points="2.19723623 19.2 2.84095664e-14 19.2 20.9736181 1.36779477e-13 24.968593 3.71199998 13.5829145 14.656 159 14.656 159 19.2"></polygon>
                    </g>
                </g>
            </g>
        </g>
    </g>
</svg>