<?xml version="1.0" encoding="UTF-8"?>
<svg width="20px" height="20px" viewBox="0 0 20 20" version="1.1" xmlns="http://www.w3.org/2000/svg" xmlns:xlink="http://www.w3.org/1999/xlink">
    <!-- Generator: Sketch 52.2 (67145) - http://www.bohemiancoding.com/sketch -->
    <title>管理</title>
    <desc>Created with Sketch.</desc>
    <g id="切图" stroke="none" stroke-width="1" fill="none" fill-rule="evenodd">
        <path d="M14.068,9.165 L11.141,6.239 L14.068,3.312 L16.994,6.239 L14.068,9.165 Z M17.993,5.483 L14.823,2.313 C14.621,2.111 14.352,2 14.068,2 C13.783,2 13.514,2.111 13.312,2.313 L10.142,5.483 C9.94,5.686 9.829,5.954 9.829,6.239 C9.829,6.523 9.94,6.792 10.142,6.994 L13.312,10.164 C13.514,10.366 13.783,10.477 14.068,10.477 C14.352,10.477 14.621,10.366 14.823,10.164 L17.993,6.994 C18.41,6.577 18.41,5.9 17.993,5.483 Z M16.858,11.703 L11.356,11.703 C11.05,11.703 10.807,11.951 10.807,12.252 L10.807,17.759 C10.807,18.063 11.054,18.308 11.356,18.308 L16.858,18.308 C17.163,18.308 17.407,18.06 17.407,17.759 L17.407,12.252 C17.407,11.951 17.163,11.703 16.858,11.703 Z M8.054,11.703 L2.548,11.703 C2.243,11.703 2,11.951 2,12.252 L2,17.759 C2,18.063 2.247,18.308 2.548,18.308 L8.05,18.308 C8.355,18.308 8.599,18.06 8.599,17.759 L8.599,12.252 C8.603,11.951 8.355,11.703 8.054,11.703 Z M8.054,2.899 L2.548,2.899 C2.247,2.899 2,3.144 2,3.448 L2,9.272 C2,9.578 2.247,9.821 2.548,9.821 L8.05,9.821 C8.355,9.821 8.599,9.573 8.599,9.272 L8.599,3.448 C8.603,3.144 8.355,2.899 8.054,2.899 Z" id="Fill-1" fill="#FFFFFF"></path>
    </g>
</svg>