<?xml version="1.0" encoding="UTF-8"?>
<svg width="20px" height="27px" viewBox="0 0 20 27" version="1.1" xmlns="http://www.w3.org/2000/svg" xmlns:xlink="http://www.w3.org/1999/xlink">
    <title>下箭头</title>
    <g id="Page-4" stroke="none" stroke-width="1" fill="none" fill-rule="evenodd">
        <g id="下箭头" transform="translate(10.000000, 13.500000) rotate(-180.000000) translate(-10.000000, -13.500000) translate(0.000000, 0.000000)" fill="#FF0000" fill-rule="nonzero">
            <path d="M10.9549188,27 L9.0383207,27 C8.78431952,27.0004536 8.54056788,26.8984413 8.36080319,26.7164512 C8.18103851,26.5344611 8.08002164,26.2874364 8.08002164,26.029836 L8.08002164,2.45968752 L11.9132179,2.45968752 L11.9132179,26.029836 C11.9132179,26.2874364 11.812201,26.5344611 11.6324363,26.7164512 C11.4526716,26.8984413 11.20892,27.0004536 10.9549188,27 Z" id="路径"></path>
            <path d="M17.0106252,12.612112 L9.99661976,5.50044408 L2.98261429,12.612112 C2.60835674,12.9885976 2.0047744,12.9885976 1.63051685,12.612112 L0.278419407,11.2408577 C-0.092806469,10.8612975 -0.092806469,10.2491634 0.278419407,9.86960331 L9.99661976,0 L19.7215806,9.86274703 C20.0928065,10.2423072 20.0928065,10.8544413 19.7215806,11.2340014 L18.3694832,12.6052558 C18.1902997,12.7891323 17.9463632,12.8931842 17.6914561,12.8944824 C17.4365491,12.8957565 17.1916038,12.7941713 17.0106252,12.612112 L17.0106252,12.612112 Z" id="路径"></path>
        </g>
    </g>
</svg>