<?xml version="1.0" encoding="UTF-8"?>
<svg width="542px" height="255px" viewBox="0 0 542 255" version="1.1" xmlns="http://www.w3.org/2000/svg" xmlns:xlink="http://www.w3.org/1999/xlink">
    <title>文字</title>
    <g id="供应商" stroke="none" stroke-width="1" fill="none" fill-rule="evenodd">
        <g transform="translate(-381.000000, -373.000000)" id="文字-2">
            <g transform="translate(381.000000, 373.000000)" id="文字">
                <rect id="矩形" stroke="#FFFFFF" stroke-width="2" x="21" y="1" width="520" height="233" rx="8"></rect>
                <rect id="矩形" stroke="#FFFFFF" stroke-width="2" fill="#17085E" x="1" y="21" width="520" height="233" rx="8"></rect>
                <g id="编组" transform="translate(63.480000, 76.680000)" fill="#FFFFFF" fill-rule="nonzero">
                    <path d="M29.84,49.92 C30.0933333,49.8266667 30.3444444,49.7288889 30.5944444,49.63 L31.3422222,49.3333333 C32.3377778,48.9422222 33.3333333,48.5866667 34.4,48.48 C39.36,47.84 44.4,47.44 49.36,47.04 C55.44,46.64 61.52,47.04 67.52,47.68 C67.6914286,47.6971429 67.8632653,47.7167347 68.035481,47.7377259 L68.5532362,47.8038484 C70.6285714,48.0767347 72.7542857,48.4 74.88,46.96 C74.88,46.24 74.96,45.44 75.04,44.72 L69.84,40.48 C68.32,41.76 67.2,43.28 65.68,43.92 C64.08,44.48 62.08,44.24 60,44.32 L60,28.08 L70.8,29.2 C71.6,28 72.32,27.12 72.88,26.32 L67.44,21.28 L64.8,23.68 C63.44,24.88 62,26 59.92,25.36 L59.92,15.36 C60.96,13.76 62.8,12.4 62.96,10 C60.72,8.56 58.56,7.28 56.48,6 L49.92,7.68 C49.76,7.92 49.68,8.16 49.52,8.32 L50.64,8.8 C52.4,9.52 52.96,10.96 52.96,12.88 C52.88,14.8 53.04,16.72 53.04,18.64 L53.04,25.44 L45.68,25.44 C46.8,24.88 47.92,24.72 49.04,24.56 C50.08,24.4 51.28,24.88 52.48,23.44 L44.96,23.76 C44.88,22 44.72,20.64 44.64,19.76 C45.52,17.52 48.08,16.72 47.6,14.56 C46.08,11.76 43.76,10.56 40.8,9.76 C39.44,10.4 37.92,11.12 36.16,12.08 C37.2,12.8 37.92,13.36 38.72,13.84 C38.32,17.6 39.76,21.44 38.32,25.04 L27.52,25.04 L29.52,29.36 C32.64,29.04 35.76,28.8 39.04,28.56 L39.04,43.76 L27.36,44.4 C28.56,48.88 28.56,48.88 29.84,49.92 Z M20.4,74.56 C23.04,72.64 24.08,70.32 24.08,67.44 C24.08,63.92 24.16,60.4 24.08,56.96 C24.08,55.12 24,53.28 24,51.44 L24,33.28 L26,29.36 L23.28,27.04 C25.12,23.6 26.88,20.48 28.72,17.28 C30.8,16.08 31.92,14.24 31.92,11.52 L28.16,6.88 C26.08,7.12 24.24,7.28 22.32,7.44 L24.24,10.96 L22.96,14.08 C22.36,15.48 21.78,16.89 21.205,18.3025 L20.0572222,21.1286111 C18.7155556,24.4244444 17.3466667,27.7066667 15.76,30.88 C12.56,37.52 8,43.36 3.6,49.2 C2.72,50.32 1.52,51.2 0.48,52.32 C0.302222222,52.4977778 0.223209877,52.774321 0.160658436,53.0673251 L0.0882304527,53.4215638 C0.0632098765,53.5387654 0.0355555556,53.6533333 0,53.76 C0.16,53.76 0.32,53.84 0.48,53.92 C1.12,53.36 1.76,52.88 2.32,52.32 C5.2,49.36 8.24,46.48 10.88,43.36 C13.36,40.64 15.36,37.6 17.68,34.64 C17.92,34.32 18.48,34.16 19.12,33.76 C19.28,34.64 19.44,35.2 19.44,35.76 L19.6,43.04 C19.984,50.272 19.4976,57.504 18.96,64.69504 L18.7576,67.38968 C18.6904,68.2872 18.624,69.184 18.56,70.08 C18.48,71.28 18.56,72.56 18.56,73.76 L20.4,74.56 Z M52.72,43.92 L45.12,43.92 L45.12,28.4 L52.96,27.92 C53.2,32.64 53.44,37.2 53.6,41.76 C53.6,42.4 53.04,43.12 52.72,43.92 Z M23.04,77.84 C24,77.44 25.04,77.2 25.84,76.64 C32.24,72.48 38.24,67.76 43.12,61.84 C43.92,60.8 44.96,60.08 45.92,59.2 C46.72,58.48 47.6,57.84 48.48,57.12 C46.96,54.32 46,51.68 42.96,50.32 C37.84,60.64 32.08,70.32 23.04,77.84 Z M71.6,65.12 C70.8,63.52 70,61.76 69.04,59.92 C66,58.08 63.2,56.24 60.24,54.72 C57.28,53.12 54.16,51.76 51.12,50.4 L50.8,50.8 C56,56.96 61.2,63.12 64.4,70.4 C67.68,71.84 68.32,71.36 71.6,65.12 Z M107.12,19.84 L139.36,17.2 C143.28,17.36 147.28,17.6 151.36,17.84 L152.64,16.32 C151.44,12.4 147.04,11.92 145.36,8.56 C143.2,11.36 141.28,14 138.4,15.44 L128.32,15.44 L128,10.56 L129.44,8.96 C128.8,6.4 125.68,3.28 123.52,3.44 C120.72,3.68 118,4.48 115.2,5.04 C115.12,5.04 115.12,5.28 115.04,5.68 L119.76,8 C119.68,10.72 120.08,13.52 119.76,16.16 L111.44,17.12 C110.08,16.8 107.84,16.8 105.36,17.92 C106,18.72 106.56,19.2 107.12,19.84 Z M81.28,80.48 C81.76,80.16 82.24,80 82.64,79.68 C85.12,77.44 87.76,75.36 90.16,73.04 C92.48,70.72 94.88,68.32 96.8,65.6 C99.36,62.08 100.48,57.76 101.36,53.52 C102.08,49.68 102.48,45.84 103.04,42.24 C104.64,40.64 106.16,39.2 107.68,37.84 C107.84,37.84 108,37.92 108.24,38 C108.24,42.96 108.8,48 107.28,53.04 C107.84,53.92 108.48,54.88 109.12,56 C110.64,54.64 112.32,53.76 112.48,51.76 L112.72,46 C112.8,44.32 112.96,42.56 112.96,41.12 C114.4,39.84 115.52,38.72 116.72,37.68 C117.92,36.64 118.64,34.88 120.72,34.56 C120.8,35.28 120.96,35.84 120.96,36.4 C120.8,40.64 120.72,44.8 120.4,49.04 C120.24,50.88 120.96,52.16 122.4,53.68 L124.96,49.36 C134.48,48.08 144.24,48.88 153.84,48.24 L154,47.68 C152.08,46.08 150.16,44.4 148.24,42.72 L145.52,46.16 L138.32,46.48 C138.08,44.8 137.92,43.28 137.6,41.52 C140.56,41.52 143.36,41.6 146.08,41.44 C147.04,41.44 148.48,41.84 148.8,40.16 L145.28,36.8 C143.44,39.04 141.28,40.56 138,39.76 L138,35.68 C141.84,35.44 145.52,35.2 149.36,34.88 C148.56,33.2 148.16,31.6 146.16,31.2 L143.68,33.84 C143.2525,33.6825 142.768047,33.676875 142.269355,33.7003198 L141.935254,33.7189087 L141.935254,33.7189087 L141.599746,33.7380249 C140.538047,33.7908594 139.4975,33.73 138.88,32.4 C139.04,31.44 139.12,30.56 139.2,29.68 L151.6,29.68 L151.84,27.6 C151.6,27.84 151.28,28 150.96,28.24 L147.68,23.52 L143.76,28 C141.44,27.84 139.2,28.8 136.72,27.12 C138.4,26 139.68,25.04 141.04,24.08 L141.36,24.4 L142.24,22.16 L138.96,18.96 L133.44,20.48 C133.44,20.64 133.36,20.8 133.36,20.96 C134,21.36 134.64,21.68 135.36,22.16 C134.72,22.4 134.24,22.64 133.84,22.72 L132.08,28.32 L124.4,28.32 L127.2,24 L123.92,20.4 L118.08,22.08 C119.36,22.96 120.16,23.6 121.04,24.24 L119.92,26.8 C118.64,29.68 117.52,32.72 116.08,35.52 C115.36,36.8 114.88,38.56 112.72,38.64 L112.72,30 L116,25.76 C114.8,24.64 113.76,23.52 112.56,22.32 C112.0224,22.4992 111.465984,22.61568 110.906557,22.7326618 L110.42668,22.8345293 C109.147008,23.114368 107.8752,23.4912 106.8,24.72 L109.68,27.44 C108.32,31.76 106.72,36.08 103.84,39.68 C103.68,39.6 103.52,39.52 103.36,39.52 L103.36,22.08 C104.74,21.84 104.86,20.835 105.0025,19.875 L105.044934,19.6026385 C105.082653,19.3778571 105.128571,19.16 105.2,18.96 C104.24,16.56 102.16,15.52 100.08,14.16 L95.12,16.8 L97.92,18.08 C98,18.88 98,19.68 98,20.4 C98.08,25.44 98.4,30.56 98.16,35.6 C97.92,40.4 97.44,45.12 96.72,49.92 C96.08,54.4 94.8,58.64 93.44,62.8 C91.36,68.8 87.12,73.52 82.72,78.08 C82.08,78.72 81.52,79.44 80.96,80.16 C81.04,80.24 81.2,80.32 81.28,80.48 Z M124.56,34.48 L124.32,32.32 L125.44,30.08 C127.6,29.84 129.84,29.68 132.16,30.16 L131.76,33.92 L124.56,34.48 Z M123.68,41.76 L123.2,41.36 C124.72,39.76 124.96,37.92 124.24,35.68 L131.68,35.68 L132,40.24 L125.36,40.24 C124.72,40.88 124.24,41.28 123.68,41.76 Z M125.04,47.36 L125.04,42.56 C126.221538,41.6738462 127.52426,41.696568 128.873591,41.7892035 L129.381629,41.8255803 C130.061538,41.8740828 130.750769,41.9138462 131.44,41.84 C132.32,43.68 131.76,45.28 131.36,47.04 C129.2,47.12 127.2,47.2 125.04,47.36 Z M146.48,66.8 L150.96,66.32 C152.8,64 153.12,61.76 151.76,60 C150.88,58.88 149.84,57.68 148.56,57.12 C144.56,55.28 140.4,53.68 136.32,52.08 C136.16,52 135.92,52.24 135.36,52.48 C140.4,56.32 144,61.2 146.48,66.8 Z M141.84,75.04 C143.92,74.8 145.04,72.96 144.72,70.96 C140.56,68.4 140.08,67.76 134.8,58.08 C134.64,61.84 135.76,65.6 134.72,69.44 C128.56,69.92 122.56,70 117.6,66.08 L117.6,56.48 L112.48,54.24 L115.68,69.28 L120.72,73.84 C122.48,74.32 124.64,75.28 126.88,75.52 C131.84,76.08 136.88,75.76 141.84,75.04 Z M124.56,67.84 C125.68,66.64 126.96,65.76 127.52,64.48 C128.56,62.08 129.12,59.52 130,56.56 L125.52,58.96 C124.4,57.6 123.2,56.24 122,54.96 C122.017021,55.8961702 121.961612,56.8432051 121.902349,57.7910875 L121.866878,58.3598386 C121.663667,61.6772114 121.581277,64.9804255 124.56,67.84 Z M100,77.36 C102.16,75.52 104,73.84 105.92,72.48 C107.52,71.28 107.84,69.6 108.08,67.84 L108.72,59.92 C107.52,58.64 106.32,57.44 104.88,55.84 L104.64,57.44 C104.48,61.6 103.52,65.6 101.2,68.96 C99.44,71.52 99.04,73.92 100,77.36 Z M181.04,14.4 C192.96,13.6 204.72,12.08 216.32,13.44 C217.76,11.6 217.6,10.24 216.4,9.04 L212.32,5.68 L206.48,10.56 L179.28,10.56 L181.04,14.4 Z M172.4,78.16 C175.76,75.68 176.64,74.16 176.88,70.48 C177.04,68.88 177.2,67.2 177.2,65.52 C177.262857,62.8171429 177.276327,60.1142857 177.279213,57.7218659 L177.279971,56.4495627 C177.28,56.2432653 177.28,56.04 177.28,55.84 C183.44,51.52 189.28,47.36 194.16,42.16 C193.36,40.96 192.88,40.16 192.16,39.2 L200,38.72 C200.24,41.76 200.32,44.48 200.64,47.12 C200.741818,47.68 201.070413,48.24 201.419624,48.8 L201.719189,49.28 C201.817521,49.44 201.912727,49.6 202,49.76 L202.4,49.44 L204.8,49.68 C204.88,49.84 204.88,50.08 204.88,50.24 L202.4,52.16 L194.48,53.04 C193.6,53.04 192.64,52.88 191.84,52.56 C190,51.84 188.16,50.88 186.32,50 C186,50.32 185.68,50.56 185.68,50.8 C185.76,57.92 186,64.96 186.16,72.4 L188,73.52 L191.2,70.24 C191.44,68 191.68,66.08 192,64.16 C195.36,63.92 198.64,63.68 201.76,63.52 L204.8,67.76 C208.88,66.4 209.92,63.44 209.52,55.76 L211.36,54.64 L206.96,49.6 L215.04,48.64 C216.96,46.32 216.16,43.92 212.8,41.92 C211.84,44.64 208.8,45.92 205.12,45.12 C205.44,43.04 205.04,40.8 206.56,38.56 L217.44,38.56 C217.44,43.12 217.2,47.6 217.52,52.08 C217.84,58 218,63.84 216.72,69.84 C214.4,70.16 212.08,68.72 209.36,69.84 C210.48,70.64 211.28,71.28 212.48,72.24 L210.64,73.04 L210.88,73.52 C211.2,73.6 211.6,73.68 211.84,73.84 L213.44,72.16 C214.16,74.16 214.88,75.76 215.76,78.08 C216.64,77.92 217.68,77.92 218.56,77.6 C221.12,76.48 222.72,74.24 224,71.92 C224.8,70.4 225.84,68.8 225.92,67.28 C226.08,62.64 225.92,57.92 225.76,53.28 C225.6,49.04 225.36,44.88 225.12,40.72 C225.52,40.4 225.76,40.24 226.08,40.08 C228.88,38.96 228.48,36 226.4,34.72 C224.56,33.52 222.8,32.16 220.96,30.8 C220.64,31.04 220.24,31.12 220,31.36 C218.24,33.2 216.16,34.56 213.52,34.88 C210.88,35.2 208.24,35.44 205.6,35.6 C205.2,35.68 204.72,35.52 203.76,35.36 L215.12,27.36 L213.12,23.68 C218.08,23.84 222.72,23.84 227.28,25.28 C229.84,26 231.52,24.4 231.28,21.44 C230.4,20.72 229.52,19.76 228.48,18.96 C226.48,17.52 224.4,16.16 222,14.64 L223.28,16.88 C221.12,19.36 220.64,19.84 217.68,20.24 C216.213333,20.4177778 214.746667,20.4474074 213.28,20.4523457 L211.52,20.454321 C210.933333,20.4562963 210.346667,20.4622222 209.76,20.48 C205.28,20.64 200.8,20.64 196.32,20.88 C193.12,21.04 189.92,21.52 186.8,21.76 C184.24,21.92 181.68,21.92 179.04,22 C176.4,22.08 173.76,22.32 171.12,22.48 C168.64,22.64 166.16,22.56 163.6,23.04 L167.28,27.76 L185.44,24.72 L187.84,35.6 C186.56,35.92 185.12,36.4 183.68,36.64 C182.08,36.8 180.48,36.64 178.88,36.64 C177.04,32.96 171.2,31.76 166.96,35.68 L170.8,37.36 C170.56,50.32 171.84,63.52 169.84,76.64 L172.4,78.16 Z M191.28,36.32 C194.72,33.84 195.12,33.2 194.8,29.28 L188.48,24.48 C195.04,23.52 201.12,23.76 207.28,23.6 C205.44,29.12 202.88,33.6 200.32,35.68 L191.28,36.32 Z M177.76,52.96 C177.2,48.64 177.12,44.72 177.92,40.4 L189.04,39.04 C186.08,44.64 182.64,49.04 177.76,52.96 Z M191.76,61.6 C191.84,59.52 191.92,57.6 192.08,55.44 L202,55.44 L202,61.28 C198.72,61.44 195.44,62.48 191.76,61.6 Z M242.8,27.84 C243.44,27.6 244,27.52 244.4,27.28 L254.96,20.32 C255.92,19.68 256.96,19.12 257.68,18.24 C259.2,16.24 261.2,15.44 264,15.36 L263.28,25.36 C264,25.6 264.88,26 266.08,26.48 L270.08,22.4 L266.88,15.76 C268.924444,14.8266667 271.018272,14.7575309 273.147764,14.7706996 L274.001431,14.7785033 C275.42727,14.7926475 276.868148,14.797037 278.32,14.56 L280.08,12.96 C279.68,10.48 278,9.2 276.88,7.92 L272.24,12 L263.76,12.8 L263.44,12.24 C265.28,10 267.12,7.68 269.04,5.44 C269.568,3.68 268.676267,2.52231111 267.658335,1.33594074 L267.37856,1.0112 C267.0976,0.6848 266.816,0.352 266.56,0 C264.08,0.64 261.28,0 258.96,1.12 L260.72,7.2 C259.36,9.04 258.08,11.04 256.72,12.96 C255.36,14.72 254.32,16.72 252.72,18.24 C250.08,20.8 247.2,23.04 244.4,25.44 C244.269091,25.5418182 244.127603,25.6383471 243.984673,25.7367994 L243.770338,25.8868219 C243.201983,26.2955372 242.683636,26.7927273 242.8,27.84 Z M245.68,45.12 L247.04,44.88 C251.84,43.76 255.04,39.84 255.28,34.96 C255.36,34.08 255.76,33.2 256.08,32.08 C270.64,31.12 284.96,30.08 299.52,29.04 C299.12,30.96 298.4,32.56 298.56,34 C298.8,35.6 296.4,36.72 297.84,38.16 C298.906667,37.9466667 299.961481,37.7333333 301.012346,37.52 L304.160988,36.88 C306.788148,36.3466667 309.44,35.8133333 312.24,35.28 L305.52,23.52 C304,22.48 302.56,22.96 301.28,24.16 C300.64,24.8 300.16,25.68 299.36,26.16 C298.4,26.72 297.36,27.2 296.24,27.28 C293.92,27.6 291.6,27.6 289.28,27.68 C286.88,27.76 284.4,27.68 281.52,27.68 L283.28,21.36 C283.04,20.8 282.88,20.16 282.64,19.44 L286.72,14.64 C289.68,14.08 292.16,13.52 294.48,13.12 C291.68,17.68 290.08,23.04 286,27.04 C290.56,24.64 294.88,21.92 299.2,19.2 C299.76,18.88 300.32,18.64 301.04,18.32 L297.92,13.84 L304.8,13.84 C306.96,13.84 309.12,13.52 311.76,13.04 L304.96,5.84 C301.6,10.72 297.12,11.68 291.36,10.32 L295.6,4.96 L290.32,0.48 L284,1.28 C284.8,2.88 285.36,4.24 286.08,5.76 C284.72,10.16 283.52,14.8 280.64,18.88 C277.6,18.56 275.04,16.16 271.76,16.8 L271.76,28.72 L254.8,28.72 C254.48,27.36 254.08,26 253.68,24.64 C253.52,24.72 253.44,24.8 253.28,24.8 C252.08,27.92 251.12,31.2 249.6,34.08 C248.08,37.04 245.92,39.68 243.92,42.64 C244.48,43.36 245.12,44.24 245.68,45.12 Z M261.6,83.76 C265.2,81.6 267.44,78.64 267.44,73.92 C274.24,73.04 280.96,72.32 287.68,72.8 C288.8,74.8 287.36,77.6 289.92,78.72 L290.32,78.72 C290.8,78.4 291.2,78.08 291.68,77.84 C295.92,75.28 297.2,71.36 296.8,66.64 C296.48,63.84 295.76,61.04 296.8,58.24 C296.96,57.68 297.04,57.12 297.28,56.4 L292.08,53.04 L287.04,57.36 L266.88,58.4 L266.72,57.12 C266.4,54.16 266.88,53.44 269.84,52.96 C271.44,52.72 273.04,52.72 274.64,52.48 C278.4,51.84 282.16,51.84 286,51.92 C288.72,51.92 291.44,51.6 294.24,51.36 L294.24,37.04 L289.2,32.96 C288,33.84 286.72,34.72 285.6,35.84 C284.64,36.72 283.68,37.28 282.4,37.28 C280.72,37.28 279.04,37.2 277.36,37.2 C274,37.28 270.72,37.36 266.96,37.36 C265.12,36.32 263.04,34.48 260.16,33.84 C260.24,35.6 260.48,37.04 260.48,38.48 C260.4,47.52 260.4,56.56 260.16,65.6 C260.08,70.4 259.6,75.2 259.28,80 C259.12,81.84 260,82.88 261.6,83.76 Z M268.72,49.36 L266.8,47.6 L267.2,41.28 C270.56,39.6 274.32,40.96 277.2,39.44 L285.6,39.44 C285.44,42.56 285.2,45.2 285.04,47.68 C284,48.24 283.12,48.64 282.24,49.04 C277.76,48.96 273.28,48.24 268.72,49.36 Z M267.28,70.08 L267.28,62.08 C268.4,61.92 269.52,61.68 270.64,61.6 C272.32,61.52 274,61.44 275.68,61.28 C279.04,61.12 282.4,60.88 285.76,60.56 C286.72,60.48 287.6,60.08 289.04,59.76 C287.04,62.24 288.32,64.8 287.6,67.36 C287.12,67.84 286.56,68.56 285.76,69.44 L267.28,70.08 Z M344.96,77.04 C349.92,76.32 354.88,75.36 359.92,74.88 C365.52,74.24 371.2,73.92 376.88,73.76 C382.08,73.6 387.28,73.52 392.4,74.4 C393.6,74.64 395.28,75.68 396.48,73.92 C396.760851,70.493617 394.872576,68.6447804 392.698161,66.9335596 L392.300078,66.6236244 C391.499285,66.0055048 390.675745,65.3940426 389.92,64.72 C388.32,66.4 386.8,68 385.36,69.6 L369.92,69.6 L369.92,56.8 C375.92,56 382.08,56.08 388.56,56.56 L390,53.92 C388.08,52 386.4,50.24 384.56,48.48 L380.64,52.72 C376.8,52.88 373.04,53.04 369.12,53.28 L369.12,41.44 L375.76,41.44 C376.3,42.31 376.24375,43.30375 376.118594,44.2989063 L376.066106,44.6967538 C375.8604,46.2199 375.658,47.708 377.36,48.72 C377.76,48.64 377.92,48.56 378.08,48.48 L380.32,46.88 C384.16,43.84 386.16,39.92 385.84,34.8 C385.52,28.8 385.44,22.64 385.2,16.56 C385.36,16.64 385.52,16.72 385.68,16.72 L387.52,14.8 C387.68,13.76 387.76,12.88 387.84,11.92 L381.28,6.72 L375.92,12.24 L369.92,12.24 L358.48,12.72 C357.04,12.72 355.76,12.32 354.64,11.44 C353.76,10.72 352.8,10.16 351.92,9.6 L347.12,11.2 C347.12,11.36 347.04,11.6 347.04,11.76 L350.4,13.44 C350.48,14.96 350.64,16.4 350.64,17.92 C350.64,21.2 350.48,24.56 350.4,27.92 C350.32,34.56 350.24,41.2 350.08,47.84 C350.08,49.28 350.72,50.08 352,50.8 C353.04,50.08 354.48,49.52 354.88,48.56 C355.6,46.64 355.76,44.48 356.24,42.16 L362.8,41.6 C362,45.52 363.36,49.44 362,53.68 L345.04,53.68 L347.12,59.04 L362.56,56.96 L362.56,68.08 C362.32,68.4 361.92,68.96 361.6,69.52 L339.6,69.52 L343.36,77.04 C343.92,77.04 344.4,77.12 344.96,77.04 Z M323.52,63.44 C330.72,56.64 339.2,52.08 347.44,46.72 C347.36,46.24 347.36,45.6 347.28,44.72 C344,45.68 341.12,47.12 337.76,47.68 L337.76,34.8 L347.6,34.16 C347.68,31.36 345.76,29.52 344.8,26.96 C344.660465,27.1274419 344.523656,27.2964413 344.388676,27.4656128 L344.12089,27.8037748 C344.076577,27.8600365 344.032401,27.9162147 343.988328,27.972258 L343.724871,28.3064897 C342.19219,30.241947 340.705116,31.8865116 337.84,31.04 L337.84,24.56 C338.56,22.8 340.56,22.32 339.92,20.32 L337.76,18.64 C337.84,18.56 337.92,18.4 337.92,18.32 L348.56,18.32 C348.64,17.44 348.96,16.56 348.72,16.08 C347.68,14.32 346.48,12.64 345.12,10.56 L341.52,14.48 L318.48,15.92 L320.48,21.44 L331.44,18.8 L331.44,32 L319.04,32.96 L321.76,38.32 L332,35.36 C331.84,40.4 333.36,45.04 331.6,49.76 C327.6,50.8 323.68,51.84 320.16,52.88 L322.56,62.16 C322.72,62.56 323.12,62.96 323.52,63.44 Z M368.72,24.8 L368.72,20.4 C369.76,19.44 370.72,18.08 368.88,16 L376.24,15.68 L376.24,24.4 L368.72,24.8 Z M362.08,25.36 L355.76,25.36 L355.76,16.96 L362.08,16.48 L362.08,25.36 Z M376.16,37.68 L368.8,37.68 L368.8,28.32 L376.64,27.44 C376.56,30.8 377.36,34.16 376.16,37.68 Z M362.56,37.76 L355.84,37.76 L355.84,29.6 L362.56,28.48 L362.56,37.76 Z" id="供应商管理"></path>
                    <path d="M12.902,121.584 C15.674,121.584 17.588,119.956 17.588,117.712 C17.588,116.414 16.884,115.424 16.004,114.72 C15.564,114.368 14.992,113.972 14.266,113.532 C12.88,112.674 12.176,112.168 11.626,111.354 C11.362,110.936 11.23,110.452 11.23,109.902 C11.23,108.582 12.044,107.746 13.364,107.746 C14.926,107.746 16.048,108.934 16.752,111.288 C16.774,111.398 17.016,111.332 17.016,111.244 L16.972,108.252 C16.972,108.076 16.862,107.944 16.62,107.834 C15.938,107.548 14.86,107.328 13.892,107.328 C11.604,107.328 9.426,108.494 9.426,110.848 C9.426,112.08 10.064,112.982 10.856,113.62 C11.252,113.928 11.802,114.302 12.506,114.764 C13.936,115.666 14.706,116.194 15.256,117.162 C15.542,117.646 15.696,118.218 15.696,118.878 C15.696,120.462 14.75,121.1 13.452,121.1 C12.506,121.1 11.714,120.704 11.076,119.934 C10.46,119.142 9.91,118.152 9.448,116.942 C9.382,116.854 9.184,116.876 9.184,116.986 L9.184,117.008 L9.316,120.33 C9.338,120.528 9.404,120.66 9.536,120.726 C10.218,121.188 11.692,121.584 12.902,121.584 Z M32.948,121.584 C34.862,121.584 36.336,120.88 38.008,119.318 L38.008,120.902 C38.008,121.276 38.052,121.32 38.426,121.32 L39.856,121.298 L41.726,121.32 C41.814,121.32 41.814,121.056 41.726,121.056 C40.274,121.056 40.032,120.858 40.032,119.538 L40.032,109.352 C40.032,108.076 40.274,107.834 41.726,107.834 C41.814,107.834 41.814,107.57 41.726,107.57 L40.582,107.592 C39.944,107.614 39.416,107.636 38.998,107.636 C38.624,107.636 38.096,107.614 37.458,107.592 L36.336,107.57 C36.27,107.57 36.27,107.834 36.336,107.834 C37.788,107.834 38.008,108.12 38.008,109.396 L38.008,118.768 C36.534,120.176 35.236,120.792 33.74,120.792 C31.452,120.792 30,119.252 30,116.458 L30,109.396 C30,108.12 30.22,107.834 31.672,107.834 C31.76,107.834 31.76,107.57 31.672,107.57 L30.572,107.592 C29.934,107.614 29.384,107.636 28.944,107.636 C28.548,107.636 28.02,107.614 27.382,107.592 L26.216,107.57 C26.15,107.57 26.15,107.834 26.216,107.834 C27.668,107.834 27.888,108.076 27.888,109.352 L27.888,117.228 C27.888,119.868 30.11,121.584 32.948,121.584 Z M51.41,121.298 L52.994,121.276 L54.908,121.298 C55.1437143,121.313714 55.458,121.318204 55.8348222,121.319487 L56.316,121.32 L56.316,121.32 C56.382,121.32 56.382,121.056 56.316,121.056 C54.336,121.056 54.028,120.792 54.028,119.45 L54.028,109.396 C54.028,108.142 54.292,107.944 55.326,107.944 C57.24,107.944 58.384,109.286 58.384,111.596 C58.384,113.95 57.174,115.248 55.656,115.248 C55.37,115.248 55.128,115.226 54.886,115.16 C54.82,115.138 54.776,115.248 54.776,115.336 C54.776,115.402 54.798,115.446 54.842,115.446 C55.128,115.512 55.458,115.556 55.876,115.556 C58.208,115.556 60.694,114.06 60.694,111.266 C60.694,108.714 58.89,107.504 55.986,107.504 C55.172,107.504 54.556,107.548 54.204,107.57 C53.72,107.614 53.302,107.636 52.972,107.636 C52.576,107.636 52.048,107.614 51.41,107.592 L50.266,107.57 C50.178,107.57 50.178,107.834 50.266,107.834 C51.718,107.834 51.938,108.076 51.938,109.352 L51.938,119.538 C51.938,120.858 51.718,121.056 50.266,121.056 C50.178,121.056 50.178,121.32 50.266,121.32 L50.7141481,121.319185 C50.9895556,121.317556 51.2193333,121.312667 51.41,121.298 Z M70.51,121.298 L72.094,121.276 L74.008,121.298 C74.2437143,121.313714 74.558,121.318204 74.9348222,121.319487 L75.416,121.32 L75.416,121.32 C75.482,121.32 75.482,121.056 75.416,121.056 C73.436,121.056 73.128,120.792 73.128,119.45 L73.128,109.396 C73.128,108.142 73.392,107.944 74.426,107.944 C76.34,107.944 77.484,109.286 77.484,111.596 C77.484,113.95 76.274,115.248 74.756,115.248 C74.47,115.248 74.228,115.226 73.986,115.16 C73.92,115.138 73.876,115.248 73.876,115.336 C73.876,115.402 73.898,115.446 73.942,115.446 C74.228,115.512 74.558,115.556 74.976,115.556 C77.308,115.556 79.794,114.06 79.794,111.266 C79.794,108.714 77.99,107.504 75.086,107.504 C74.272,107.504 73.656,107.548 73.304,107.57 C72.82,107.614 72.402,107.636 72.072,107.636 C71.676,107.636 71.148,107.614 70.51,107.592 L69.366,107.57 C69.278,107.57 69.278,107.834 69.366,107.834 C70.818,107.834 71.038,108.076 71.038,109.352 L71.038,119.538 C71.038,120.858 70.818,121.056 69.366,121.056 C69.278,121.056 69.278,121.32 69.366,121.32 L69.8141481,121.319185 C70.0895556,121.317556 70.3193333,121.312667 70.51,121.298 Z M98.652,121.32 C98.916,121.32 98.982,121.232 98.982,120.99 C98.982,119.934 99.048,118.79 99.202,117.558 C99.202,117.514 99.136,117.492 99.026,117.492 C98.96,117.492 98.938,117.492 98.938,117.514 C98.476,119.516 96.958,120.748 94.868,120.748 L93.57,120.748 C92.316,120.748 92.118,120.594 92.118,119.45 L92.118,109.374 C92.118,108.076 92.382,107.834 93.812,107.834 C93.878,107.834 93.878,107.57 93.812,107.57 L92.712,107.592 C92.03,107.614 91.48,107.636 91.062,107.636 C90.644,107.636 90.094,107.614 89.456,107.592 L88.356,107.57 C88.268,107.57 88.268,107.834 88.356,107.834 C89.808,107.834 90.028,108.076 90.028,109.352 L90.028,119.538 C90.028,120.858 89.808,121.056 88.356,121.056 C88.268,121.056 88.268,121.32 88.356,121.32 L98.652,121.32 Z M108.666,121.298 L110.25,121.276 L111.878,121.298 C112.068667,121.312667 112.298444,121.317556 112.573852,121.319185 L113.022,121.32 L113.022,121.32 C113.088,121.32 113.088,121.056 113.022,121.056 C111.57,121.056 111.35,120.858 111.35,119.538 L111.35,109.396 C111.35,108.12 111.57,107.834 113.022,107.834 C113.088,107.834 113.088,107.57 113.022,107.57 L111.922,107.592 C111.24,107.614 110.69,107.636 110.25,107.636 C109.832,107.636 109.304,107.614 108.666,107.592 L107.522,107.57 C107.434,107.57 107.434,107.834 107.522,107.834 C108.974,107.834 109.216,108.076 109.216,109.352 L109.216,119.538 C109.216,120.858 108.974,121.056 107.522,121.056 C107.434,121.056 107.434,121.32 107.522,121.32 L107.970148,121.319185 C108.245556,121.317556 108.475333,121.312667 108.666,121.298 Z M131.462,121.32 C131.726,121.32 131.792,121.232 131.792,120.99 C131.792,120.066 131.858,119.054 132.012,117.932 C132.012,117.888 131.946,117.866 131.836,117.866 C131.77,117.866 131.748,117.866 131.748,117.888 C131.22,119.802 129.966,120.748 128.008,120.748 L126.93,120.748 C125.984,120.748 125.676,120.418 125.676,119.45 L125.676,114.456 L127.766,114.456 C129.416,114.456 130.23,115.094 130.23,116.326 C130.23,116.414 130.494,116.414 130.494,116.326 C130.494,116.04 130.472,115.666 130.45,115.204 L130.428,114.17 C130.428,113.862 130.428,113.62 130.45,113.466 L130.472,112.256 C130.472,112.168 130.208,112.168 130.208,112.256 C130.208,113.334 129.416,113.884 127.81,113.884 L125.676,113.884 L125.676,109.418 C125.676,108.472 126.05,108.142 127.128,108.142 L128.008,108.142 C129.702,108.142 130.714,108.978 131.088,110.65 C131.088,110.716 131.33,110.694 131.33,110.628 L131.286,107.768 C131.286,107.636 131.22,107.57 131.088,107.57 L121.914,107.57 C121.826,107.57 121.826,107.834 121.914,107.834 C123.366,107.834 123.586,108.076 123.586,109.352 L123.586,119.538 C123.586,120.858 123.366,121.056 121.914,121.056 C121.826,121.056 121.826,121.32 121.914,121.32 L131.462,121.32 Z M142.114,121.298 L143.676,121.276 L145.282,121.298 C145.472667,121.312667 145.702444,121.317556 145.977852,121.319185 L146.426,121.32 L146.426,121.32 C146.492,121.32 146.492,121.056 146.426,121.056 C144.974,121.056 144.754,120.858 144.754,119.538 L144.754,114.39 C144.974,114.412 145.348,114.412 145.876,114.412 C146.14,114.412 146.382,114.39 146.624,114.346 C149.264,118.746 151.178,121.32 151.86,121.32 L155.402,121.32 C155.49,121.32 155.49,121.056 155.402,121.056 C153.532,120.968 151.992,119.274 148.362,113.73 C149.704,112.96 150.584,111.684 150.584,110.298 C150.584,108.538 149.132,107.504 146.514,107.504 C145.92,107.504 145.414,107.548 145.062,107.57 C144.578,107.614 144.116,107.636 143.676,107.636 C143.28,107.636 142.752,107.614 142.114,107.592 L140.97,107.57 C140.904,107.57 140.904,107.834 140.97,107.834 C142.422,107.834 142.642,108.076 142.642,109.352 L142.642,119.538 C142.642,120.858 142.4,121.056 140.948,121.056 C140.86,121.056 140.86,121.32 140.948,121.32 L141.350414,121.319487 C141.660531,121.318204 141.909714,121.313714 142.114,121.298 Z M146.03,113.862 C145.568,113.862 145.15,113.84 144.754,113.796 L144.754,109.396 C144.754,108.252 145.084,107.922 146.14,107.922 C147.57,107.922 148.406,108.714 148.406,111.09 C148.406,113.202 147.79,113.862 146.03,113.862 Z M175.21,121.298 L176.508,121.276 L177.718,121.298 C177.864667,121.312667 178.050444,121.317556 178.275333,121.319185 L178.642,121.32 L178.642,121.32 C178.73,121.32 178.73,121.056 178.642,121.056 C177.388,121.056 176.75,120.22 176.772,118.658 L176.97,110.298 L182.47,121.166 C182.536,121.232 182.602,121.254 182.668,121.254 C182.756,121.254 182.822,121.232 182.844,121.166 L187.53,110.254 L187.97,119.538 C188.058,120.836 187.772,121.056 186.364,121.056 C186.298,121.056 186.298,121.32 186.364,121.32 L186.795852,121.319185 C187.063111,121.317556 187.288,121.312667 187.464,121.298 L189.048,121.276 L190.61,121.298 C190.814286,121.313714 191.063469,121.318204 191.373586,121.319487 L191.776,121.32 L191.776,121.32 C191.842,121.32 191.842,121.056 191.776,121.056 C190.302,121.056 190.17,120.858 190.082,119.538 L189.576,109.484 C189.51,108.318 190.126,107.834 191.534,107.834 C191.6,107.834 191.6,107.57 191.534,107.57 C191.16,107.57 190.896,107.57 190.698,107.592 L189.488,107.614 C189.048,107.614 188.718,107.57 188.52,107.57 C188.19,107.57 188.014,107.702 187.838,108.12 L183.46,118.152 L178.62,108.714 C178.114,107.746 177.982,107.57 177.608,107.57 C177.432,107.57 177.278,107.57 177.168,107.592 L176.134,107.614 C175.826,107.614 175.584,107.614 175.386,107.592 L174.44,107.57 C174.352,107.57 174.352,107.834 174.44,107.834 C175.254,107.834 175.914,108.274 176.398,109.176 L176.2,118.658 C176.178,120.176 175.496,121.056 174.286,121.056 C174.198,121.056 174.198,121.32 174.286,121.32 L174.652667,121.319185 C174.877556,121.317556 175.063333,121.312667 175.21,121.298 Z M214.946,121.32 C215.1,121.32 215.1,121.056 214.946,121.056 C214.154,121.056 213.582,120.418 212.526,118.306 L207.158,107.438 C207.136,107.394 207.092,107.372 206.982,107.372 C206.872,107.372 206.806,107.394 206.784,107.438 L202.076,118.086 C200.976,120.528 200.47,121.056 199.26,121.056 C199.106,121.056 199.106,121.32 199.26,121.32 C199.568,121.32 199.964,121.298 200.426,121.276 C200.954,121.254 201.416,121.232 201.812,121.232 C202.252,121.232 202.758,121.254 203.308,121.276 C203.77,121.298 204.144,121.32 204.408,121.32 C204.562,121.32 204.562,121.056 204.408,121.056 C203.088,121.056 202.318,120.528 202.318,119.494 C202.318,119.142 202.406,118.746 202.604,118.306 L204.298,114.5 L208.28,114.5 L210.656,119.318 C210.898,119.846 211.03,120.22 211.03,120.44 C211.03,120.88 210.656,121.056 209.798,121.056 C209.688,121.056 209.688,121.32 209.798,121.32 C210.084,121.32 210.458,121.298 210.964,121.276 C211.47,121.254 211.888,121.232 212.262,121.232 C212.548,121.232 212.988,121.254 213.604,121.276 C214.22,121.298 214.66,121.32 214.946,121.32 Z M207.994,113.928 L204.54,113.928 L206.19,110.254 L207.994,113.928 Z M235.872,121.628 L235.872,110.254 C235.872,108.692 236.51,107.834 237.72,107.834 C237.786,107.834 237.786,107.57 237.72,107.57 L236.752,107.592 C236.224,107.614 235.828,107.636 235.564,107.636 C235.256,107.636 234.86,107.614 234.398,107.592 L233.496,107.57 C233.43,107.57 233.43,107.834 233.496,107.834 C234.662,107.834 235.278,108.692 235.278,110.254 L235.278,118.042 L227.358,108.714 C227.16,108.472 226.984,108.252 226.852,108.032 C226.61,107.658 226.522,107.57 226.28,107.57 C226.038,107.57 225.84,107.57 225.664,107.592 L224.256,107.614 C223.904,107.614 223.64,107.614 223.442,107.592 L222.562,107.57 C222.496,107.57 222.496,107.834 222.562,107.834 C223.244,107.834 223.882,108.142 224.696,109 L224.696,118.658 C224.696,120.22 223.97,121.056 222.716,121.056 C222.628,121.056 222.628,121.32 222.716,121.32 L223.0807,121.319487 C223.359388,121.318204 223.577143,121.313714 223.75,121.298 L225.026,121.276 L226.17,121.298 C226.316667,121.312667 226.502444,121.317556 226.727333,121.319185 L227.094,121.32 L227.094,121.32 C227.16,121.32 227.16,121.056 227.094,121.056 C225.928,121.056 225.29,120.22 225.29,118.658 L225.29,109.682 L235.608,121.672 C235.674,121.738 235.872,121.694 235.872,121.628 Z M260.692,121.32 C260.846,121.32 260.846,121.056 260.692,121.056 C259.9,121.056 259.328,120.418 258.272,118.306 L252.904,107.438 C252.882,107.394 252.838,107.372 252.728,107.372 C252.618,107.372 252.552,107.394 252.53,107.438 L247.822,118.086 C246.722,120.528 246.216,121.056 245.006,121.056 C244.852,121.056 244.852,121.32 245.006,121.32 C245.314,121.32 245.71,121.298 246.172,121.276 C246.7,121.254 247.162,121.232 247.558,121.232 C247.998,121.232 248.504,121.254 249.054,121.276 C249.516,121.298 249.89,121.32 250.154,121.32 C250.308,121.32 250.308,121.056 250.154,121.056 C248.834,121.056 248.064,120.528 248.064,119.494 C248.064,119.142 248.152,118.746 248.35,118.306 L250.044,114.5 L254.026,114.5 L256.402,119.318 C256.644,119.846 256.776,120.22 256.776,120.44 C256.776,120.88 256.402,121.056 255.544,121.056 C255.434,121.056 255.434,121.32 255.544,121.32 C255.83,121.32 256.204,121.298 256.71,121.276 C257.216,121.254 257.634,121.232 258.008,121.232 C258.294,121.232 258.734,121.254 259.35,121.276 C259.966,121.298 260.406,121.32 260.692,121.32 Z M253.74,113.928 L250.286,113.928 L251.936,110.254 L253.74,113.928 Z M276.668,121.584 C278.12,121.584 279.77,121.386 281.618,120.968 C281.816,120.88 281.882,120.88 281.882,120.704 C281.882,120.55 281.728,120.088 281.728,118.768 C281.75,116.238 281.728,116.282 282.63,116.194 C282.696,116.194 282.74,116.15 282.74,116.04 C282.74,115.974 282.696,115.886 282.63,115.886 C281.838,115.93 281.068,115.952 280.342,115.952 C279.616,115.952 278.626,115.908 277.416,115.842 C277.35,115.842 277.306,115.93 277.306,116.018 C277.306,116.128 277.35,116.194 277.438,116.194 C279.682,116.304 279.638,116.282 279.726,118.548 C279.726,120.792 279.066,121.21 277.196,121.21 C273.742,121.276 271.014,118.108 271.08,113.774 C271.08,110.1 272.862,107.878 276.096,107.878 C278.45,107.878 280.298,109.154 281.2,111.376 C281.222,111.464 281.442,111.442 281.442,111.354 L281.178,108.494 C281.156,108.208 281.112,108.098 280.87,107.988 C280.012,107.57 278.472,107.328 277.13,107.328 C272.422,107.262 268.704,110.364 268.77,114.588 C268.77,118.526 271.784,121.584 276.668,121.584 Z M300.96,121.32 C301.224,121.32 301.29,121.232 301.29,120.99 C301.29,120.066 301.356,119.054 301.51,117.932 C301.51,117.888 301.444,117.866 301.334,117.866 C301.268,117.866 301.246,117.866 301.246,117.888 C300.718,119.802 299.464,120.748 297.506,120.748 L296.428,120.748 C295.482,120.748 295.174,120.418 295.174,119.45 L295.174,114.456 L297.264,114.456 C298.914,114.456 299.728,115.094 299.728,116.326 C299.728,116.414 299.992,116.414 299.992,116.326 C299.992,116.04 299.97,115.666 299.948,115.204 L299.926,114.17 C299.926,113.862 299.926,113.62 299.948,113.466 L299.97,112.256 C299.97,112.168 299.706,112.168 299.706,112.256 C299.706,113.334 298.914,113.884 297.308,113.884 L295.174,113.884 L295.174,109.418 C295.174,108.472 295.548,108.142 296.626,108.142 L297.506,108.142 C299.2,108.142 300.212,108.978 300.586,110.65 C300.586,110.716 300.828,110.694 300.828,110.628 L300.784,107.768 C300.784,107.636 300.718,107.57 300.586,107.57 L291.412,107.57 C291.324,107.57 291.324,107.834 291.412,107.834 C292.864,107.834 293.084,108.076 293.084,109.352 L293.084,119.538 C293.084,120.858 292.864,121.056 291.412,121.056 C291.324,121.056 291.324,121.32 291.412,121.32 L300.96,121.32 Z M311.128,121.298 L312.426,121.276 L313.636,121.298 C313.782667,121.312667 313.968444,121.317556 314.193333,121.319185 L314.56,121.32 L314.56,121.32 C314.648,121.32 314.648,121.056 314.56,121.056 C313.306,121.056 312.668,120.22 312.69,118.658 L312.888,110.298 L318.388,121.166 C318.454,121.232 318.52,121.254 318.586,121.254 C318.674,121.254 318.74,121.232 318.762,121.166 L323.448,110.254 L323.888,119.538 C323.976,120.836 323.69,121.056 322.282,121.056 C322.216,121.056 322.216,121.32 322.282,121.32 L322.713852,121.319185 C322.981111,121.317556 323.206,121.312667 323.382,121.298 L324.966,121.276 L326.528,121.298 C326.732286,121.313714 326.981469,121.318204 327.291586,121.319487 L327.694,121.32 L327.694,121.32 C327.76,121.32 327.76,121.056 327.694,121.056 C326.22,121.056 326.088,120.858 326,119.538 L325.494,109.484 C325.428,108.318 326.044,107.834 327.452,107.834 C327.518,107.834 327.518,107.57 327.452,107.57 C327.078,107.57 326.814,107.57 326.616,107.592 L325.406,107.614 C324.966,107.614 324.636,107.57 324.438,107.57 C324.108,107.57 323.932,107.702 323.756,108.12 L319.378,118.152 L314.538,108.714 C314.032,107.746 313.9,107.57 313.526,107.57 C313.35,107.57 313.196,107.57 313.086,107.592 L312.052,107.614 C311.744,107.614 311.502,107.614 311.304,107.592 L310.358,107.57 C310.27,107.57 310.27,107.834 310.358,107.834 C311.172,107.834 311.832,108.274 312.316,109.176 L312.118,118.658 C312.096,120.176 311.414,121.056 310.204,121.056 C310.116,121.056 310.116,121.32 310.204,121.32 L310.570667,121.319185 C310.795556,121.317556 310.981333,121.312667 311.128,121.298 Z M345.694,121.32 C345.958,121.32 346.024,121.232 346.024,120.99 C346.024,120.066 346.09,119.054 346.244,117.932 C346.244,117.888 346.178,117.866 346.068,117.866 C346.002,117.866 345.98,117.866 345.98,117.888 C345.452,119.802 344.198,120.748 342.24,120.748 L341.162,120.748 C340.216,120.748 339.908,120.418 339.908,119.45 L339.908,114.456 L341.998,114.456 C343.648,114.456 344.462,115.094 344.462,116.326 C344.462,116.414 344.726,116.414 344.726,116.326 C344.726,116.04 344.704,115.666 344.682,115.204 L344.66,114.17 C344.66,113.862 344.66,113.62 344.682,113.466 L344.704,112.256 C344.704,112.168 344.44,112.168 344.44,112.256 C344.44,113.334 343.648,113.884 342.042,113.884 L339.908,113.884 L339.908,109.418 C339.908,108.472 340.282,108.142 341.36,108.142 L342.24,108.142 C343.934,108.142 344.946,108.978 345.32,110.65 C345.32,110.716 345.562,110.694 345.562,110.628 L345.518,107.768 C345.518,107.636 345.452,107.57 345.32,107.57 L336.146,107.57 C336.058,107.57 336.058,107.834 336.146,107.834 C337.598,107.834 337.818,108.076 337.818,109.352 L337.818,119.538 C337.818,120.858 337.598,121.056 336.146,121.056 C336.058,121.056 336.058,121.32 336.146,121.32 L345.694,121.32 Z M368.182,121.628 L368.182,110.254 C368.182,108.692 368.82,107.834 370.03,107.834 C370.096,107.834 370.096,107.57 370.03,107.57 L369.062,107.592 C368.534,107.614 368.138,107.636 367.874,107.636 C367.566,107.636 367.17,107.614 366.708,107.592 L365.806,107.57 C365.74,107.57 365.74,107.834 365.806,107.834 C366.972,107.834 367.588,108.692 367.588,110.254 L367.588,118.042 L359.668,108.714 C359.47,108.472 359.294,108.252 359.162,108.032 C358.92,107.658 358.832,107.57 358.59,107.57 C358.348,107.57 358.15,107.57 357.974,107.592 L356.566,107.614 C356.214,107.614 355.95,107.614 355.752,107.592 L354.872,107.57 C354.806,107.57 354.806,107.834 354.872,107.834 C355.554,107.834 356.192,108.142 357.006,109 L357.006,118.658 C357.006,120.22 356.28,121.056 355.026,121.056 C354.938,121.056 354.938,121.32 355.026,121.32 L355.3907,121.319487 C355.669388,121.318204 355.887143,121.313714 356.06,121.298 L357.336,121.276 L358.48,121.298 C358.626667,121.312667 358.812444,121.317556 359.037333,121.319185 L359.404,121.32 L359.404,121.32 C359.47,121.32 359.47,121.056 359.404,121.056 C358.238,121.056 357.6,120.22 357.6,118.658 L357.6,109.682 L367.918,121.672 C367.984,121.738 368.182,121.694 368.182,121.628 Z M382.706,121.298 L384.422,121.276 L386.226,121.298 C386.430286,121.313714 386.701918,121.318204 387.024863,121.319487 L387.436,121.32 L387.436,121.32 C387.524,121.32 387.524,121.056 387.436,121.056 C385.742,121.056 385.522,120.858 385.522,119.538 L385.522,109.396 C385.522,108.252 385.698,108.032 386.93,108.032 C388.778,108.032 389.878,109.066 390.164,111.332 C390.186,111.398 390.428,111.398 390.428,111.332 C390.428,110.76 390.45,110.012 390.494,109.088 C390.538,108.164 390.582,107.482 390.626,107.02 C390.626,106.91 390.406,106.91 390.384,107.02 C390.23,107.46 389.79,107.57 388.668,107.57 L387.194,107.592 C386.226,107.614 385.302,107.636 384.422,107.636 C382.728,107.636 381.254,107.614 380,107.57 C379.186,107.57 378.79,107.416 378.79,107.086 C378.79,106.932 378.526,106.932 378.526,107.086 C378.526,107.592 378.482,108.318 378.416,109.264 C378.35,110.21 378.284,110.892 378.218,111.332 C378.218,111.398 378.46,111.42 378.482,111.354 C379.098,109.132 380.22,108.032 382.002,108.032 C383.146,108.032 383.388,108.274 383.388,109.352 L383.388,119.538 C383.388,120.814 383.102,121.056 381.43,121.056 C381.364,121.056 381.364,121.32 381.43,121.32 L381.869615,121.319487 C382.209878,121.318204 382.486,121.313714 382.706,121.298 Z" id="SUPPLIERMANAGEMENT"></path>
                </g>
            </g>
        </g>
    </g>
</svg>