<?xml version="1.0" encoding="UTF-8"?>
<svg width="19px" height="19px" viewBox="0 0 19 19" version="1.1" xmlns="http://www.w3.org/2000/svg" xmlns:xlink="http://www.w3.org/1999/xlink">
    <title>系统首页</title>
    <g id="供应商" stroke="none" stroke-width="1" fill="none" fill-rule="evenodd">
        <g id="系统首页" fill="#FFFFFF" fill-rule="nonzero">
            <path d="M14.7691298,19 L10.9893396,19 C10.6138866,19 10.3118634,18.6968803 10.3118634,18.3201164 L10.3118634,12.4277687 C10.3118634,12.4249209 10.3062346,12.4164478 10.3005826,12.4164478 L8.52503068,12.4164478 C8.52219304,12.4164478 8.51374988,12.4220966 8.51374988,12.4277687 L8.51374988,18.3201164 C8.51374988,18.6969036 8.21170346,19 7.83627367,19 L4.05932115,19 C2.92735649,19 2.00712205,18.0764955 2.00712205,16.9405085 L2.00712205,10.9518515 L1.59501221,10.9518515 C0.957053702,10.9518515 0.38401215,10.5722633 0.12994985,9.98301682 C-0.121274804,9.39661811 -0.00269844179,8.71671118 0.437648299,8.25213457 L7.34510517,0.932024295 C7.90402827,0.339976805 8.68877678,0 9.50173892,0 C10.3147011,0 11.0994496,0.339930121 11.6583727,0.932024295 L18.5630152,8.25213457 C19.0005475,8.71671118 19.1219383,9.39659476 18.8707136,9.98301682 C18.6194889,10.5694389 18.043633,10.9518515 17.4056512,10.9518515 L16.8213289,10.9518515 L16.8213289,16.9405085 C16.8213289,18.0764955 15.9010944,19 14.7691298,19 L14.7691298,19 Z M11.6668391,17.6402095 L14.7691298,17.6402095 C15.1530493,17.6402095 15.4663765,17.3257689 15.4663765,16.9404852 L15.4663765,10.2719212 C15.4663765,9.89513404 15.7684229,9.59203766 16.1438527,9.59203766 L17.4056745,9.59203766 C17.4790579,9.59203766 17.5806781,9.55520392 17.6258711,9.44755044 C17.6710641,9.33989695 17.6287088,9.24073997 17.5807014,9.18693657 L10.6704069,1.86682629 C10.3627084,1.54104145 9.94776095,1.35974383 9.49892453,1.35974383 C9.05008812,1.35974383 8.63514063,1.53821706 8.32744218,1.86682629 L1.41998531,9.18693657 C1.36916355,9.24076331 1.32683146,9.33992029 1.37481558,9.44755044 C1.41998531,9.55518058 1.52160558,9.59203766 1.59501221,9.59203766 L2.68462152,9.59203766 C3.06007456,9.59203766 3.36209772,9.89515739 3.36209772,10.2719212 L3.36209772,16.9404852 C3.36209772,17.3257689 3.67542494,17.6402095 4.05934441,17.6402095 L7.16163511,17.6402095 L7.16163511,12.4277453 C7.16163511,11.6713699 7.77419437,11.0566339 8.52789159,11.0566339 L10.3034435,11.0566339 C11.0571407,11.0566339 11.6697,11.6713699 11.6697,12.4277453 L11.6697,17.6402095 L11.6668391,17.6402095 Z" id="形状"></path>
        </g>
    </g>
</svg>