<?xml version="1.0" encoding="UTF-8"?>
<svg width="20px" height="20px" viewBox="0 0 20 20" version="1.1" xmlns="http://www.w3.org/2000/svg" xmlns:xlink="http://www.w3.org/1999/xlink">
    <title>系统中心</title>
    <g id="供应商" stroke="none" stroke-width="1" fill="none" fill-rule="evenodd">
        <g id="系统中心" fill="#FFFFFF" fill-rule="nonzero">
            <path d="M16.4624959,20 L3.53750412,20 C1.58326484,19.9981922 2.39902344e-08,18.4134606 2.39902344e-08,16.4592204 L2.39902344e-08,3.5375041 C0.00180581001,1.584543 1.58454302,0.00180578602 3.53750412,0 L16.4624959,0 C18.415457,0.00180578602 19.9981942,1.584543 20,3.5375041 L20,16.4592204 C20,18.4134606 18.4167352,19.9981922 16.4624959,20 Z M3.53750412,1.31018669 C2.30813866,1.3119906 1.31199063,2.30813864 1.31018672,3.5375041 L1.31018672,16.4592204 C1.31199064,17.6885859 2.30813867,18.6847339 3.53750412,18.6865378 L16.4624959,18.6865378 C17.6918614,18.6847339 18.6880094,17.6885859 18.6898133,16.4592204 L18.6898133,3.5375041 C18.6880094,2.30813864 17.6918614,1.3119906 16.4624959,1.31018669 L3.53750412,1.31018669 Z" id="形状"></path>
            <path d="M19.3449066,7.09466099 L0.655093358,7.09466099 C0.293295287,7.09466099 0,6.8013657 0,6.43956763 C0,6.07776956 0.293295287,5.78447427 0.655093358,5.78447427 L19.3449066,5.78447427 C19.7067047,5.78447427 20,6.07776956 20,6.43956763 C20,6.8013657 19.7067047,7.09466099 19.3449066,7.09466099 L19.3449066,7.09466099 Z" id="路径"></path>
            <path d="M4.02882413,10.4552899 C4.02882413,10.7536938 4.18802073,11.0294305 4.44644613,11.1786324 C4.70487154,11.3278344 5.02326476,11.3278344 5.28169017,11.1786324 C5.54011557,11.0294305 5.69931217,10.7536938 5.69931217,10.4552899 C5.69931217,10.1568859 5.54011557,9.8811493 5.28169017,9.73194732 C5.02326476,9.58274534 4.70487154,9.58274534 4.44644613,9.73194732 C4.18802073,9.8811493 4.02882413,10.1568859 4.02882413,10.4552899 Z" id="路径"></path>
            <path d="M7.34359647,10.4552899 C7.34359647,10.9165824 7.71754796,11.2905339 8.17884049,11.2905339 C8.64013303,11.2905339 9.01408452,10.9165824 9.01408452,10.4552899 C9.01408452,9.99399735 8.64013303,9.62004586 8.17884049,9.62004586 C7.71754796,9.62004586 7.34359647,9.99399735 7.34359647,10.4552899 Z" id="路径"></path>
            <path d="M10.6616443,10.4552899 C10.6616443,10.9165824 11.0355958,11.2905339 11.4968883,11.2905339 C11.9581809,11.2905339 12.3321323,10.9165824 12.3321323,10.4552899 C12.3321323,9.99399735 11.9581809,9.62004586 11.4968883,9.62004586 C11.0355958,9.62004586 10.6616443,9.99399735 10.6616443,10.4552899 L10.6616443,10.4552899 Z" id="路径"></path>
        </g>
    </g>
</svg>